<?xml version="1.0" encoding="UTF-8" standalone="no"?>
<svg
   version="1.1"
   viewBox="0 0 700 256"
   fill="none"
   stroke="none"
   stroke-linecap="square"
   stroke-miterlimit="10"
   id="svg1148"
   sodipodi:docname="nolimit.svg"
   width="700"
   height="256"
   inkscape:version="1.1.1 (c3084ef, 2021-09-22)"
   xmlns:inkscape="http://www.inkscape.org/namespaces/inkscape"
   xmlns:sodipodi="http://sodipodi.sourceforge.net/DTD/sodipodi-0.dtd"
   xmlns="http://www.w3.org/2000/svg"
   xmlns:svg="http://www.w3.org/2000/svg">
  <defs
     id="defs1152" />
  <sodipodi:namedview
     id="namedview1150"
     pagecolor="#505050"
     bordercolor="#eeeeee"
     borderopacity="1"
     inkscape:pageshadow="0"
     inkscape:pageopacity="0"
     inkscape:pagecheckerboard="0"
     showgrid="false"
     showguides="true"
     height="767px"
     width="700px"
     inkscape:zoom="0.93619792"
     inkscape:cx="507.90542"
     inkscape:cy="345.54659"
     inkscape:window-width="1296"
     inkscape:window-height="969"
     inkscape:window-x="186"
     inkscape:window-y="25"
     inkscape:window-maximized="0"
     inkscape:current-layer="svg1148" />
  <clipPath
     id="p.0">
    <path
       d="M 0,0 H 1024 V 768 H 0 Z"
       clip-rule="nonzero"
       id="path1069" />
  </clipPath>
  <g
     clip-path="url(#p.0)"
     id="g1146"
     transform="translate(-93.997218,-88.656467)">
    <path
       fill="#000000"
       fill-opacity="0"
       d="M 0,0 H 1024 V 768 H 0 Z"
       fill-rule="evenodd"
       id="path1072" />
    <path
       fill="#ffffff"
       d="m 134.25197,93.296585 h 627.0551 V 332.28872 h -627.0551 z"
       fill-rule="evenodd"
       id="path1074" />
    <path
       stroke="#000000"
       stroke-width="1"
       stroke-linejoin="round"
       stroke-linecap="butt"
       d="m 134.25197,93.296585 h 627.0551 V 332.28872 h -627.0551 z"
       fill-rule="evenodd"
       id="path1076" />
    <path
       fill="#efefef"
       d="m 161.57742,144.69833 v 0 c 0,-4.79816 3.88968,-8.68784 8.68784,-8.68784 h 129.89993 c 2.30413,0 4.51394,0.91533 6.14321,2.54462 1.62928,1.62927 2.54462,3.83907 2.54462,6.14322 v 34.7503 c 0,4.79818 -3.88968,8.68786 -8.68783,8.68786 H 170.26526 c -4.79816,0 -8.68784,-3.88968 -8.68784,-8.68786 z"
       fill-rule="evenodd"
       id="path1078" />
    <path
       stroke="#000000"
       stroke-width="1"
       stroke-linejoin="round"
       stroke-linecap="butt"
       d="m 161.57742,144.69833 v 0 c 0,-4.79816 3.88968,-8.68784 8.68784,-8.68784 h 129.89993 c 2.30413,0 4.51394,0.91533 6.14321,2.54462 1.62928,1.62927 2.54462,3.83907 2.54462,6.14322 v 34.7503 c 0,4.79818 -3.88968,8.68786 -8.68783,8.68786 H 170.26526 c -4.79816,0 -8.68784,-3.88968 -8.68784,-8.68786 z"
       fill-rule="evenodd"
       id="path1080" />
    <path
       fill="#000000"
       d="m 197.45644,152.59349 v -8.59375 h 1.15625 l 4.51562,6.75 v -6.75 h 1.09375 v 8.59375 h -1.17187 l -4.51563,-6.75 v 6.75 z m 8.15039,-3.10938 q 0,-1.73437 0.95313,-2.5625 0.79687,-0.6875 1.95312,-0.6875 1.28125,0 2.09375,0.84375 0.82813,0.82813 0.82813,2.3125 0,1.20313 -0.35938,1.89063 -0.35937,0.6875 -1.0625,1.07812 -0.6875,0.375 -1.5,0.375 -1.29687,0 -2.10937,-0.82812 -0.79688,-0.84375 -0.79688,-2.42188 z m 1.07813,0 q 0,1.1875 0.51562,1.78125 0.53125,0.59375 1.3125,0.59375 0.79688,0 1.3125,-0.59375 0.51563,-0.59375 0.51563,-1.8125 0,-1.15625 -0.53125,-1.75 -0.51563,-0.59375 -1.29688,-0.59375 -0.78125,0 -1.3125,0.59375 -0.51562,0.57813 -0.51562,1.78125 z m 9.39843,3.10938 v -8.59375 h 1.14063 v 7.57812 h 4.23437 v 1.01563 z m 6.59571,-7.375 v -1.21875 h 1.0625 v 1.21875 z m 0,7.375 v -6.21875 h 1.0625 v 6.21875 z m 2.66601,0 v -6.21875 h 0.9375 v 0.875 q 0.29688,-0.46875 0.78125,-0.73438 0.48438,-0.28125 1.10938,-0.28125 0.6875,0 1.125,0.28125 0.45312,0.28125 0.625,0.79688 0.75,-1.07813 1.92187,-1.07813 0.9375,0 1.42188,0.51563 0.5,0.5 0.5,1.57812 v 4.26563 h -1.04688 v -3.92188 q 0,-0.625 -0.10937,-0.90625 -0.0937,-0.28125 -0.35938,-0.45312 -0.26562,-0.17188 -0.64062,-0.17188 -0.65625,0 -1.09375,0.4375 -0.42188,0.4375 -0.42188,1.40625 v 3.60938 h -1.0625 v -4.04688 q 0,-0.70312 -0.26562,-1.04687 -0.25,-0.35938 -0.82813,-0.35938 -0.45312,0 -0.82812,0.23438 -0.375,0.23437 -0.54688,0.6875 -0.17187,0.45312 -0.17187,1.29687 v 3.23438 z m 9.9961,-7.375 v -1.21875 h 1.0625 v 1.21875 z m 0,7.375 v -6.21875 h 1.0625 v 6.21875 z m 4.96289,-0.9375 0.15625,0.92187 q -0.45313,0.0937 -0.79688,0.0937 -0.57812,0 -0.89062,-0.17187 -0.3125,-0.1875 -0.45313,-0.48438 -0.125,-0.29687 -0.125,-1.25 v -3.57812 h -0.76562 v -0.8125 h 0.76562 v -1.54688 l 1.04688,-0.625 v 2.17188 h 1.0625 v 0.8125 h -1.0625 v 3.64062 q 0,0.45313 0.0469,0.57813 0.0625,0.125 0.1875,0.20312 0.125,0.0781 0.35938,0.0781 0.1875,0 0.46875,-0.0312 z m 4.46484,0.9375 v -8.59375 h 1.71875 l 2.03125,6.07812 q 0.28125,0.85938 0.40625,1.28125 0.14063,-0.46875 0.45313,-1.375 l 2.0625,-5.98437 h 1.53125 v 8.59375 h -1.09375 v -7.1875 l -2.5,7.1875 h -1.03125 l -2.48438,-7.3125 v 7.3125 z m 9.51172,-3.10938 q 0,-1.73437 0.95312,-2.5625 0.79686,-0.6875 1.95311,-0.6875 1.28125,0 2.09375,0.84375 0.82813,0.82813 0.82813,2.3125 0,1.20313 -0.35938,1.89063 -0.35937,0.6875 -1.0625,1.07812 -0.6875,0.375 -1.5,0.375 -1.29686,0 -2.10936,-0.82812 -0.79687,-0.84375 -0.79687,-2.42188 z m 1.07812,0 q 0,1.1875 0.51563,1.78125 0.53123,0.59375 1.31248,0.59375 0.79688,0 1.3125,-0.59375 0.51563,-0.59375 0.51563,-1.8125 0,-1.15625 -0.53125,-1.75 -0.51563,-0.59375 -1.29688,-0.59375 -0.78125,0 -1.31248,0.59375 -0.51563,0.57813 -0.51563,1.78125 z m 10.01757,3.10938 v -0.78125 q -0.59375,0.92187 -1.73438,0.92187 -0.75,0 -1.375,-0.40625 -0.625,-0.42187 -0.96875,-1.15625 -0.34375,-0.73437 -0.34375,-1.6875 0,-0.92187 0.3125,-1.6875 0.3125,-0.76562 0.9375,-1.15625 0.625,-0.40625 1.39063,-0.40625 0.5625,0 1,0.23438 0.4375,0.23437 0.71875,0.60937 v -3.07812 h 1.04687 v 8.59375 z m -3.32813,-3.10938 q 0,1.20313 0.5,1.79688 0.5,0.57812 1.1875,0.57812 0.6875,0 1.17188,-0.5625 0.48437,-0.5625 0.48437,-1.71875 0,-1.28125 -0.5,-1.875 -0.48437,-0.59375 -1.20312,-0.59375 -0.70313,0 -1.17188,0.57813 -0.46875,0.5625 -0.46875,1.79687 z m 10.22071,1.10938 1.09375,0.125 q -0.25,0.95312 -0.95313,1.48437 -0.70312,0.53125 -1.78125,0.53125 -1.35937,0 -2.17187,-0.84375 -0.79688,-0.84375 -0.79688,-2.35937 0,-1.5625 0.8125,-2.42188 0.8125,-0.875 2.09375,-0.875 1.25,0 2.03125,0.84375 0.79688,0.84375 0.79688,2.39063 0,0.0937 0,0.28125 h -4.64063 q 0.0625,1.03125 0.57813,1.57812 0.51562,0.53125 1.29687,0.53125 0.57813,0 0.98438,-0.29687 0.42187,-0.3125 0.65625,-0.96875 z m -3.45313,-1.70313 h 3.46875 q -0.0625,-0.79687 -0.39062,-1.1875 -0.51563,-0.60937 -1.3125,-0.60937 -0.73438,0 -1.23438,0.48437 -0.48437,0.48438 -0.53125,1.3125 z"
       fill-rule="nonzero"
       id="path1082" />
    <path
       fill="#000000"
       d="m 195.25624,163.57787 1.125,0.29687 q -0.35938,1.39063 -1.28125,2.125 -0.92188,0.73438 -2.26563,0.73438 -1.39062,0 -2.26562,-0.5625 -0.875,-0.5625 -1.32813,-1.625 -0.45312,-1.07813 -0.45312,-2.3125 0,-1.34375 0.51562,-2.34375 0.51563,-1 1.45313,-1.51563 0.95312,-0.51562 2.09375,-0.51562 1.28125,0 2.15625,0.65625 0.89062,0.65625 1.23437,1.84375 l -1.125,0.26562 q -0.29687,-0.9375 -0.875,-1.35937 -0.5625,-0.4375 -1.42187,-0.4375 -0.98438,0 -1.65625,0.48437 -0.65625,0.46875 -0.9375,1.26563 -0.26563,0.79687 -0.26563,1.65625 0,1.09375 0.3125,1.90625 0.32813,0.8125 1,1.21875 0.67188,0.40625 1.46875,0.40625 0.95313,0 1.60938,-0.54688 0.67187,-0.54687 0.90625,-1.64062 z m 6.46289,2.25 q -0.59375,0.5 -1.14062,0.70312 -0.53125,0.20313 -1.15625,0.20313 -1.03125,0 -1.57813,-0.5 -0.54687,-0.5 -0.54687,-1.28125 0,-0.45313 0.20312,-0.82813 0.20313,-0.39062 0.54688,-0.60937 0.34375,-0.23438 0.76562,-0.34375 0.29688,-0.0937 0.9375,-0.17188 1.26563,-0.14062 1.875,-0.35937 0,-0.21875 0,-0.26563 0,-0.65625 -0.29687,-0.92187 -0.40625,-0.34375 -1.20313,-0.34375 -0.73437,0 -1.09375,0.26562 -0.35937,0.25 -0.53125,0.90625 l -1.03125,-0.14062 q 0.14063,-0.65625 0.46875,-1.0625 0.32813,-0.40625 0.9375,-0.625 0.60938,-0.21875 1.40625,-0.21875 0.79688,0 1.29688,0.1875 0.5,0.1875 0.73437,0.46875 0.23438,0.28125 0.32813,0.71875 0.0469,0.26562 0.0469,0.96875 v 1.40625 q 0,1.46875 0.0625,1.85937 0.0781,0.39063 0.28125,0.75 h -1.10937 q -0.15625,-0.32812 -0.20313,-0.76562 z m -0.0937,-2.35938 q -0.57812,0.23438 -1.71875,0.40625 -0.65625,0.0937 -0.92187,0.21875 -0.26563,0.10938 -0.42188,0.32813 -0.14062,0.21875 -0.14062,0.5 0,0.42187 0.3125,0.70312 0.32812,0.28125 0.9375,0.28125 0.60937,0 1.07812,-0.26562 0.48438,-0.26563 0.70313,-0.73438 0.17187,-0.35937 0.17187,-1.04687 z m 2.70508,3.125 v -6.21875 h 0.9375 v 0.875 q 0.29687,-0.46875 0.78125,-0.73437 0.48437,-0.28125 1.10937,-0.28125 0.6875,0 1.125,0.28125 0.45313,0.28125 0.625,0.79687 0.75,-1.07812 1.92188,-1.07812 0.9375,0 1.42187,0.51562 0.5,0.5 0.5,1.57813 v 4.26562 h -1.04687 v -3.92187 q 0,-0.625 -0.10938,-0.90625 -0.0937,-0.28125 -0.35937,-0.45313 -0.26563,-0.17187 -0.64063,-0.17187 -0.65625,0 -1.09375,0.4375 -0.42187,0.4375 -0.42187,1.40625 v 3.60937 h -1.0625 v -4.04687 q 0,-0.70313 -0.26563,-1.04688 -0.25,-0.35937 -0.82812,-0.35937 -0.45313,0 -0.82813,0.23437 -0.375,0.23438 -0.54687,0.6875 -0.17188,0.45313 -0.17188,1.29688 v 3.23437 z m 9.99609,2.39063 v -8.60938 h 0.95313 v 0.79688 q 0.34375,-0.46875 0.76562,-0.70313 0.4375,-0.23437 1.04688,-0.23437 0.79687,0 1.40625,0.40625 0.60937,0.40625 0.90625,1.15625 0.3125,0.75 0.3125,1.64062 0,0.95313 -0.34375,1.71875 -0.32813,0.76563 -0.98438,1.17188 -0.65625,0.40625 -1.375,0.40625 -0.53125,0 -0.95312,-0.21875 -0.42188,-0.23438 -0.6875,-0.5625 v 3.03125 z m 0.95313,-5.46875 q 0,1.20312 0.48437,1.78125 0.48438,0.5625 1.17188,0.5625 0.70312,0 1.20312,-0.59375 0.5,-0.59375 0.5,-1.84375 0,-1.1875 -0.48437,-1.76563 -0.48438,-0.59375 -1.17188,-0.59375 -0.67187,0 -1.1875,0.625 -0.51562,0.625 -0.51562,1.82813 z m 9.7832,2.3125 q -0.59375,0.5 -1.14062,0.70312 -0.53125,0.20313 -1.15625,0.20313 -1.03125,0 -1.57813,-0.5 -0.54687,-0.5 -0.54687,-1.28125 0,-0.45313 0.20312,-0.82813 0.20313,-0.39062 0.54688,-0.60937 0.34375,-0.23438 0.76562,-0.34375 0.29688,-0.0937 0.9375,-0.17188 1.26563,-0.14062 1.875,-0.35937 0,-0.21875 0,-0.26563 0,-0.65625 -0.29687,-0.92187 -0.40625,-0.34375 -1.20313,-0.34375 -0.73437,0 -1.09375,0.26562 -0.35937,0.25 -0.53125,0.90625 l -1.03125,-0.14062 q 0.14063,-0.65625 0.46875,-1.0625 0.32813,-0.40625 0.9375,-0.625 0.60938,-0.21875 1.40625,-0.21875 0.79688,0 1.29688,0.1875 0.5,0.1875 0.73437,0.46875 0.23438,0.28125 0.32813,0.71875 0.0469,0.26562 0.0469,0.96875 v 1.40625 q 0,1.46875 0.0625,1.85937 0.0781,0.39063 0.28125,0.75 h -1.10937 q -0.15625,-0.32812 -0.20313,-0.76562 z m -0.0937,-2.35938 q -0.57812,0.23438 -1.71875,0.40625 -0.65625,0.0937 -0.92187,0.21875 -0.26563,0.10938 -0.42188,0.32813 -0.14062,0.21875 -0.14062,0.5 0,0.42187 0.3125,0.70312 0.32812,0.28125 0.9375,0.28125 0.60937,0 1.07812,-0.26562 0.48438,-0.26563 0.70313,-0.73438 0.17187,-0.35937 0.17187,-1.04687 z m 2.70508,-4.25 v -1.21875 h 1.0625 v 1.21875 z m 0,7.375 v -6.21875 h 1.0625 v 6.21875 z m 2.46289,0.51563 1.03125,0.15625 q 0.0625,0.46875 0.35937,0.6875 0.39063,0.29687 1.0625,0.29687 0.73438,0 1.125,-0.29687 0.40625,-0.29688 0.54688,-0.8125 0.0937,-0.32813 0.0781,-1.35938 -0.6875,0.8125 -1.71875,0.8125 -1.28125,0 -1.98437,-0.92187 -0.70313,-0.9375 -0.70313,-2.21875 0,-0.89063 0.3125,-1.64063 0.32813,-0.76562 0.9375,-1.17187 0.60938,-0.40625 1.4375,-0.40625 1.10938,0 1.82813,0.89062 v -0.75 h 0.96875 v 5.375 q 0,1.45313 -0.29688,2.0625 -0.29687,0.60938 -0.9375,0.95313 -0.64062,0.35937 -1.57812,0.35937 -1.10938,0 -1.79688,-0.5 -0.6875,-0.5 -0.67187,-1.51562 z m 0.875,-3.73438 q 0,1.21875 0.48437,1.78125 0.48438,0.5625 1.21875,0.5625 0.73438,0 1.21875,-0.5625 0.5,-0.5625 0.5,-1.75 0,-1.14062 -0.51562,-1.71875 -0.5,-0.57812 -1.21875,-0.57812 -0.70313,0 -1.20313,0.57812 -0.48437,0.5625 -0.48437,1.6875 z m 6.00195,3.21875 v -6.21875 h 0.9375 v 0.875 q 0.6875,-1.01562 1.98438,-1.01562 0.5625,0 1.03125,0.20312 0.48437,0.20313 0.71875,0.53125 0.23437,0.32813 0.32812,0.76563 0.0469,0.29687 0.0469,1.03125 v 3.82812 h -1.04688 v -3.78125 q 0,-0.65625 -0.125,-0.96875 -0.125,-0.3125 -0.4375,-0.5 -0.3125,-0.20312 -0.73437,-0.20312 -0.67188,0 -1.17188,0.4375 -0.48437,0.42187 -0.48437,1.60937 v 3.40625 z m 10.25781,0 v -5.40625 h -0.9375 v -0.8125 h 0.9375 v -0.67187 q 0,-0.625 0.10938,-0.92188 0.15625,-0.42187 0.53125,-0.67187 0.39062,-0.25 1.07812,-0.25 0.45313,0 0.98438,0.10937 l -0.15625,0.90625 q -0.32813,-0.0469 -0.625,-0.0469 -0.48438,0 -0.6875,0.20312 -0.1875,0.20313 -0.1875,0.76563 v 0.57812 h 1.21875 v 0.8125 h -1.21875 v 5.40625 z m 7.14649,-0.76562 q -0.59375,0.5 -1.14063,0.70312 -0.53125,0.20313 -1.15625,0.20313 -1.03125,0 -1.57812,-0.5 -0.54688,-0.5 -0.54688,-1.28125 0,-0.45313 0.20313,-0.82813 0.20312,-0.39062 0.54687,-0.60937 0.34375,-0.23438 0.76563,-0.34375 0.29687,-0.0937 0.9375,-0.17188 1.26562,-0.14062 1.875,-0.35937 0,-0.21875 0,-0.26563 0,-0.65625 -0.29688,-0.92187 -0.40625,-0.34375 -1.20312,-0.34375 -0.73438,0 -1.09375,0.26562 -0.35938,0.25 -0.53125,0.90625 l -1.03125,-0.14062 q 0.14062,-0.65625 0.46875,-1.0625 0.32812,-0.40625 0.9375,-0.625 0.60937,-0.21875 1.40625,-0.21875 0.79687,0 1.29687,0.1875 0.5,0.1875 0.73438,0.46875 0.23437,0.28125 0.32812,0.71875 0.0469,0.26562 0.0469,0.96875 v 1.40625 q 0,1.46875 0.0625,1.85937 0.0781,0.39063 0.28125,0.75 h -1.10938 q -0.15625,-0.32812 -0.20312,-0.76562 z m -0.0937,-2.35938 q -0.57813,0.23438 -1.71875,0.40625 -0.65625,0.0937 -0.92188,0.21875 -0.26562,0.10938 -0.42187,0.32813 -0.14063,0.21875 -0.14063,0.5 0,0.42187 0.3125,0.70312 0.32813,0.28125 0.9375,0.28125 0.60938,0 1.07813,-0.26562 0.48437,-0.26563 0.70312,-0.73438 0.17188,-0.35937 0.17188,-1.04687 z m 6.76756,0.84375 1.03125,0.14063 q -0.17187,1.0625 -0.875,1.67187 -0.70312,0.60938 -1.71875,0.60938 -1.28125,0 -2.0625,-0.82813 -0.76562,-0.84375 -0.76562,-2.40625 0,-1 0.32812,-1.75 0.34375,-0.76562 1.01563,-1.14062 0.6875,-0.375 1.5,-0.375 1,0 1.64062,0.51562 0.65625,0.5 0.84375,1.45313 l -1.03125,0.15625 q -0.14062,-0.625 -0.51562,-0.9375 -0.375,-0.32813 -0.90625,-0.32813 -0.79688,0 -1.29688,0.57813 -0.5,0.5625 -0.5,1.79687 0,1.26563 0.48438,1.82813 0.48437,0.5625 1.25,0.5625 0.625,0 1.03125,-0.375 0.42187,-0.375 0.54687,-1.17188 z m 4.23438,1.34375 0.15625,0.92188 q -0.45313,0.0937 -0.79688,0.0937 -0.57812,0 -0.89062,-0.17188 -0.3125,-0.1875 -0.45313,-0.48437 -0.125,-0.29688 -0.125,-1.25 v -3.57813 h -0.76562 v -0.8125 h 0.76562 v -1.54687 l 1.04688,-0.625 v 2.17187 h 1.0625 v 0.8125 h -1.0625 v 3.64063 q 0,0.45312 0.0469,0.57812 0.0625,0.125 0.1875,0.20313 0.125,0.0781 0.35938,0.0781 0.1875,0 0.46875,-0.0312 z m 0.64648,-2.17187 q 0,-1.73438 0.95313,-2.5625 0.79687,-0.6875 1.95312,-0.6875 1.28125,0 2.09375,0.84375 0.82813,0.82812 0.82813,2.3125 0,1.20312 -0.35938,1.89062 -0.35937,0.6875 -1.0625,1.07813 -0.6875,0.375 -1.5,0.375 -1.29687,0 -2.10937,-0.82813 -0.79688,-0.84375 -0.79688,-2.42187 z m 1.07813,0 q 0,1.1875 0.51562,1.78125 0.53125,0.59375 1.3125,0.59375 0.79688,0 1.3125,-0.59375 0.51563,-0.59375 0.51563,-1.8125 0,-1.15625 -0.53125,-1.75 -0.51563,-0.59375 -1.29688,-0.59375 -0.78125,0 -1.3125,0.59375 -0.51562,0.57812 -0.51562,1.78125 z m 5.9707,3.10937 v -6.21875 h 0.95312 v 0.9375 q 0.35938,-0.65625 0.65625,-0.85937 0.3125,-0.21875 0.6875,-0.21875 0.53125,0 1.07813,0.32812 l -0.35938,0.98438 q -0.39062,-0.23438 -0.76562,-0.23438 -0.35938,0 -0.64063,0.21875 -0.26562,0.20313 -0.375,0.57813 -0.1875,0.5625 -0.1875,1.21875 v 3.26562 z m 3.96484,2.39063 -0.125,-0.98438 q 0.34375,0.0937 0.60938,0.0937 0.34375,0 0.54687,-0.125 0.21875,-0.10937 0.35938,-0.3125 0.0937,-0.17187 0.32812,-0.79687 0.0156,-0.0781 0.0937,-0.25 l -2.375,-6.23438 h 1.14063 l 1.29687,3.59375 q 0.25,0.6875 0.45313,1.45313 0.1875,-0.73438 0.4375,-1.42188 l 1.32812,-3.625 h 1.04688 l -2.35938,6.32813 q -0.39062,1.01562 -0.59375,1.40625 -0.28125,0.53125 -0.65625,0.76562 -0.35937,0.25 -0.85937,0.25 -0.29688,0 -0.67188,-0.14062 z"
       fill-rule="nonzero"
       id="path1084" />
    <path
       fill="#000000"
       d="m 196.02187,183.12474 q -0.875,-1.10938 -1.48438,-2.57813 -0.59375,-1.48437 -0.59375,-3.0625 0,-1.39062 0.4375,-2.67187 0.53125,-1.48438 1.64063,-2.95313 h 0.75 q -0.70313,1.21875 -0.9375,1.73438 -0.35938,0.8125 -0.5625,1.6875 -0.25,1.09375 -0.25,2.20312 0,2.82813 1.75,5.64063 z m 1.55859,-4.39063 1.03125,-0.15625 q 0.0937,0.625 0.48438,0.95313 0.40625,0.32812 1.14062,0.32812 0.71875,0 1.0625,-0.28125 0.35938,-0.29687 0.35938,-0.70312 0,-0.35938 -0.3125,-0.5625 -0.21875,-0.14063 -1.07813,-0.35938 -1.15625,-0.29687 -1.60937,-0.5 -0.4375,-0.21875 -0.67188,-0.59375 -0.23437,-0.375 -0.23437,-0.84375 0,-0.40625 0.1875,-0.76562 0.1875,-0.35938 0.51562,-0.59375 0.25,-0.17188 0.67188,-0.29688 0.42187,-0.125 0.92187,-0.125 0.71875,0 1.26563,0.21875 0.5625,0.20313 0.82812,0.5625 0.26563,0.35938 0.35938,0.95313 l -1.03125,0.14062 q -0.0625,-0.46875 -0.40625,-0.73437 -0.32813,-0.28125 -0.95313,-0.28125 -0.71875,0 -1.03125,0.25 -0.3125,0.23437 -0.3125,0.5625 0,0.20312 0.125,0.35937 0.14063,0.17188 0.40625,0.28125 0.15625,0.0625 0.9375,0.26563 1.125,0.3125 1.5625,0.5 0.4375,0.1875 0.6875,0.54687 0.25,0.35938 0.25,0.90625 0,0.53125 -0.3125,1 -0.29687,0.45313 -0.875,0.71875 -0.57812,0.25 -1.3125,0.25 -1.21875,0 -1.85937,-0.5 -0.625,-0.51562 -0.79688,-1.5 z m 6.42188,1.85938 v -6.21875 h 0.9375 v 0.875 q 0.29687,-0.46875 0.78125,-0.73438 0.48437,-0.28125 1.10937,-0.28125 0.6875,0 1.125,0.28125 0.45313,0.28125 0.625,0.79688 0.75,-1.07813 1.92188,-1.07813 0.9375,0 1.42187,0.51563 0.5,0.5 0.5,1.57812 v 4.26563 h -1.04687 v -3.92188 q 0,-0.625 -0.10938,-0.90625 -0.0937,-0.28125 -0.35937,-0.45312 -0.26563,-0.17188 -0.64063,-0.17188 -0.65625,0 -1.09375,0.4375 -0.42187,0.4375 -0.42187,1.40625 v 3.60938 h -1.0625 v -4.04688 q 0,-0.70312 -0.26563,-1.04687 -0.25,-0.35938 -0.82812,-0.35938 -0.45313,0 -0.82813,0.23438 -0.375,0.23437 -0.54687,0.6875 -0.17188,0.45312 -0.17188,1.29687 v 3.23438 z m 14.05859,-0.76563 q -0.59375,0.5 -1.14062,0.70313 -0.53125,0.20312 -1.15625,0.20312 -1.03125,0 -1.57813,-0.5 -0.54687,-0.5 -0.54687,-1.28125 0,-0.45312 0.20312,-0.82812 0.20313,-0.39063 0.54688,-0.60938 0.34375,-0.23437 0.76562,-0.34375 0.29688,-0.0937 0.9375,-0.17187 1.26563,-0.14063 1.875,-0.35938 0,-0.21875 0,-0.26562 0,-0.65625 -0.29687,-0.92188 -0.40625,-0.34375 -1.20313,-0.34375 -0.73437,0 -1.09375,0.26563 -0.35937,0.25 -0.53125,0.90625 l -1.03125,-0.14063 q 0.14063,-0.65625 0.46875,-1.0625 0.32813,-0.40625 0.9375,-0.625 0.60938,-0.21875 1.40625,-0.21875 0.79688,0 1.29688,0.1875 0.5,0.1875 0.73437,0.46875 0.23438,0.28125 0.32813,0.71875 0.0469,0.26563 0.0469,0.96875 v 1.40625 q 0,1.46875 0.0625,1.85938 0.0781,0.39062 0.28125,0.75 h -1.10937 q -0.15625,-0.32813 -0.20313,-0.76563 z m -0.0937,-2.35937 q -0.57812,0.23437 -1.71875,0.40625 -0.65625,0.0937 -0.92187,0.21875 -0.26563,0.10937 -0.42188,0.32812 -0.14062,0.21875 -0.14062,0.5 0,0.42188 0.3125,0.70313 0.32812,0.28125 0.9375,0.28125 0.60937,0 1.07812,-0.26563 0.48438,-0.26562 0.70313,-0.73437 0.17187,-0.35938 0.17187,-1.04688 z m 2.68946,3.125 v -6.21875 h 0.95312 v 0.9375 q 0.35938,-0.65625 0.65625,-0.85938 0.3125,-0.21875 0.6875,-0.21875 0.53125,0 1.07813,0.32813 l -0.35938,0.98437 q -0.39062,-0.23437 -0.76562,-0.23437 -0.35938,0 -0.64063,0.21875 -0.26562,0.20312 -0.375,0.57812 -0.1875,0.5625 -0.1875,1.21875 v 3.26563 z m 6.30859,-0.9375 0.15625,0.92187 q -0.45313,0.0937 -0.79688,0.0937 -0.57812,0 -0.89062,-0.17187 -0.3125,-0.1875 -0.45313,-0.48438 -0.125,-0.29687 -0.125,-1.25 v -3.57812 h -0.76562 v -0.8125 h 0.76562 v -1.54688 l 1.04688,-0.625 v 2.17188 h 1.0625 v 0.8125 h -1.0625 v 3.64062 q 0,0.45313 0.0469,0.57813 0.0625,0.125 0.1875,0.20312 0.125,0.0781 0.35938,0.0781 0.1875,0 0.46875,-0.0312 z m 8.43359,-1.34375 1.03125,0.14062 q -0.17187,1.0625 -0.875,1.67188 -0.70312,0.60937 -1.71875,0.60937 -1.28125,0 -2.0625,-0.82812 -0.76562,-0.84375 -0.76562,-2.40625 0,-1 0.32812,-1.75 0.34375,-0.76563 1.01563,-1.14063 0.6875,-0.375 1.5,-0.375 1,0 1.64062,0.51563 0.65625,0.5 0.84375,1.45312 l -1.03125,0.15625 q -0.14062,-0.625 -0.51562,-0.9375 -0.375,-0.32812 -0.90625,-0.32812 -0.79688,0 -1.29688,0.57812 -0.5,0.5625 -0.5,1.79688 0,1.26562 0.48438,1.82812 0.48437,0.5625 1.25,0.5625 0.625,0 1.03125,-0.375 0.42187,-0.375 0.54687,-1.17187 z m 1.54688,-0.82813 q 0,-1.73437 0.95312,-2.5625 0.79688,-0.6875 1.95313,-0.6875 1.28125,0 2.09375,0.84375 0.82812,0.82813 0.82812,2.3125 0,1.20313 -0.35937,1.89063 -0.35938,0.6875 -1.0625,1.07812 -0.6875,0.375 -1.5,0.375 -1.29688,0 -2.10938,-0.82812 -0.79687,-0.84375 -0.79687,-2.42188 z m 1.07812,0 q 0,1.1875 0.51563,1.78125 0.53125,0.59375 1.3125,0.59375 0.79687,0 1.3125,-0.59375 0.51562,-0.59375 0.51562,-1.8125 0,-1.15625 -0.53125,-1.75 -0.51562,-0.59375 -1.29687,-0.59375 -0.78125,0 -1.3125,0.59375 -0.51563,0.57813 -0.51563,1.78125 z m 5.98633,3.10938 v -6.21875 h 0.9375 v 0.875 q 0.6875,-1.01563 1.98438,-1.01563 0.5625,0 1.03125,0.20313 0.48437,0.20312 0.71875,0.53125 0.23437,0.32812 0.32812,0.76562 0.0469,0.29688 0.0469,1.03125 v 3.82813 h -1.04688 v -3.78125 q 0,-0.65625 -0.125,-0.96875 -0.125,-0.3125 -0.4375,-0.5 -0.3125,-0.20313 -0.73437,-0.20313 -0.67188,0 -1.17188,0.4375 -0.48437,0.42188 -0.48437,1.60938 v 3.40625 z m 8.9707,-0.9375 0.15625,0.92187 q -0.45312,0.0937 -0.79687,0.0937 -0.57813,0 -0.89063,-0.17187 -0.3125,-0.1875 -0.45312,-0.48438 -0.125,-0.29687 -0.125,-1.25 v -3.57812 h -0.76563 v -0.8125 h 0.76563 v -1.54688 l 1.04687,-0.625 v 2.17188 h 1.0625 v 0.8125 h -1.0625 v 3.64062 q 0,0.45313 0.0469,0.57813 0.0625,0.125 0.1875,0.20312 0.125,0.0781 0.35937,0.0781 0.1875,0 0.46875,-0.0312 z m 1.02149,0.9375 v -6.21875 h 0.95312 v 0.9375 q 0.35938,-0.65625 0.65625,-0.85938 0.3125,-0.21875 0.68749,-0.21875 0.53125,0 1.07812,0.32813 l -0.35937,0.98437 q -0.39063,-0.23437 -0.76563,-0.23437 -0.35936,0 -0.64061,0.21875 -0.26562,0.20312 -0.375,0.57812 -0.1875,0.5625 -0.1875,1.21875 v 3.26563 z m 8.0742,-0.76563 q -0.59375,0.5 -1.14062,0.70313 -0.53125,0.20312 -1.15625,0.20312 -1.03125,0 -1.57813,-0.5 -0.54687,-0.5 -0.54687,-1.28125 0,-0.45312 0.20312,-0.82812 0.20313,-0.39063 0.54688,-0.60938 0.34375,-0.23437 0.76562,-0.34375 0.29688,-0.0937 0.9375,-0.17187 1.26563,-0.14063 1.875,-0.35938 0,-0.21875 0,-0.26562 0,-0.65625 -0.29687,-0.92188 -0.40625,-0.34375 -1.20313,-0.34375 -0.73437,0 -1.09375,0.26563 -0.35937,0.25 -0.53125,0.90625 l -1.03125,-0.14063 q 0.14063,-0.65625 0.46875,-1.0625 0.32813,-0.40625 0.9375,-0.625 0.60938,-0.21875 1.40625,-0.21875 0.79688,0 1.29688,0.1875 0.5,0.1875 0.73437,0.46875 0.23438,0.28125 0.32813,0.71875 0.0469,0.26563 0.0469,0.96875 v 1.40625 q 0,1.46875 0.0625,1.85938 0.0781,0.39062 0.28125,0.75 h -1.10937 q -0.15625,-0.32813 -0.20313,-0.76563 z m -0.0937,-2.35937 q -0.57812,0.23437 -1.71875,0.40625 -0.65625,0.0937 -0.92187,0.21875 -0.26563,0.10937 -0.42188,0.32812 -0.14062,0.21875 -0.14062,0.5 0,0.42188 0.3125,0.70313 0.32812,0.28125 0.9375,0.28125 0.60937,0 1.07812,-0.26563 0.48438,-0.26562 0.70313,-0.73437 0.17187,-0.35938 0.17187,-1.04688 z m 6.76758,0.84375 1.03125,0.14062 q -0.17187,1.0625 -0.875,1.67188 -0.70312,0.60937 -1.71875,0.60937 -1.28125,0 -2.0625,-0.82812 -0.76562,-0.84375 -0.76562,-2.40625 0,-1 0.32812,-1.75 0.34375,-0.76563 1.01563,-1.14063 0.6875,-0.375 1.5,-0.375 1,0 1.64062,0.51563 0.65625,0.5 0.84375,1.45312 l -1.03125,0.15625 q -0.14062,-0.625 -0.51562,-0.9375 -0.375,-0.32812 -0.90625,-0.32812 -0.79688,0 -1.29688,0.57812 -0.5,0.5625 -0.5,1.79688 0,1.26562 0.48438,1.82812 0.48437,0.5625 1.25,0.5625 0.625,0 1.03125,-0.375 0.42187,-0.375 0.54687,-1.17187 z m 4.23438,1.34375 0.15625,0.92187 q -0.45313,0.0937 -0.79688,0.0937 -0.57812,0 -0.89062,-0.17187 -0.3125,-0.1875 -0.45313,-0.48438 -0.125,-0.29687 -0.125,-1.25 v -3.57812 h -0.76562 v -0.8125 h 0.76562 v -1.54688 l 1.04688,-0.625 v 2.17188 h 1.0625 v 0.8125 h -1.0625 v 3.64062 q 0,0.45313 0.0469,0.57813 0.0625,0.125 0.1875,0.20312 0.125,0.0781 0.35938,0.0781 0.1875,0 0.46875,-0.0312 z m 1.72461,3.46875 h -0.75 q 1.75,-2.8125 1.75,-5.64063 0,-1.09375 -0.25,-2.1875 -0.20313,-0.875 -0.5625,-1.6875 -0.23438,-0.51562 -0.9375,-1.75 h 0.75 q 1.09375,1.46875 1.625,2.95313 0.45312,1.28125 0.45312,2.67187 0,1.57813 -0.60937,3.0625 -0.60938,1.46875 -1.46875,2.57813 z"
       fill-rule="nonzero"
       id="path1086" />
    <path
       fill="#efefef"
       d="m 358.5853,144.69833 v 0 c 0,-4.79816 3.88968,-8.68784 8.68784,-8.68784 h 129.89993 c 2.30413,0 4.51394,0.91533 6.14322,2.54462 1.62927,1.62927 2.54461,3.83907 2.54461,6.14322 v 34.7503 c 0,4.79818 -3.88968,8.68786 -8.68783,8.68786 H 367.27314 c -4.79816,0 -8.68784,-3.88968 -8.68784,-8.68786 z"
       fill-rule="evenodd"
       id="path1088" />
    <path
       stroke="#000000"
       stroke-width="1"
       stroke-linejoin="round"
       stroke-linecap="butt"
       d="m 358.5853,144.69833 v 0 c 0,-4.79816 3.88968,-8.68784 8.68784,-8.68784 h 129.89993 c 2.30413,0 4.51394,0.91533 6.14322,2.54462 1.62927,1.62927 2.54461,3.83907 2.54461,6.14322 v 34.7503 c 0,4.79818 -3.88968,8.68786 -8.68783,8.68786 H 367.27314 c -4.79816,0 -8.68784,-3.88968 -8.68784,-8.68786 z"
       fill-rule="evenodd"
       id="path1090" />
    <path
       fill="#000000"
       d="m 394.75726,149.82787 1.0625,-0.0937 q 0.0781,0.65625 0.35937,1.0625 0.28125,0.40625 0.85938,0.67187 0.59375,0.25 1.32812,0.25 0.64063,0 1.14063,-0.1875 0.5,-0.20312 0.73437,-0.53125 0.25,-0.34375 0.25,-0.73437 0,-0.40625 -0.23437,-0.70313 -0.23438,-0.3125 -0.76563,-0.51562 -0.35937,-0.14063 -1.54687,-0.42188 -1.17188,-0.28125 -1.64063,-0.53125 -0.625,-0.32812 -0.92187,-0.79687 -0.29688,-0.48438 -0.29688,-1.07813 0,-0.64062 0.35938,-1.20312 0.375,-0.57813 1.07812,-0.85938 0.71875,-0.29687 1.57813,-0.29687 0.95312,0 1.6875,0.3125 0.73437,0.29687 1.125,0.90625 0.39062,0.59375 0.42187,1.34375 l -1.09375,0.0781 q -0.0937,-0.8125 -0.60937,-1.21875 -0.5,-0.42187 -1.48438,-0.42187 -1.03125,0 -1.5,0.375 -0.46875,0.375 -0.46875,0.90625 0,0.46875 0.32813,0.76562 0.32812,0.29688 1.70312,0.60938 1.39063,0.3125 1.90625,0.54687 0.75,0.35938 1.10938,0.89063 0.35937,0.51562 0.35937,1.21875 0,0.6875 -0.39062,1.29687 -0.39063,0.59375 -1.125,0.9375 -0.73438,0.32813 -1.65625,0.32813 -1.17188,0 -1.96875,-0.32813 -0.78125,-0.34375 -1.23438,-1.03125 -0.4375,-0.6875 -0.45312,-1.54687 z m 12.31641,0.48437 1.03125,0.14063 q -0.17188,1.0625 -0.875,1.67187 -0.70313,0.60938 -1.71875,0.60938 -1.28125,0 -2.0625,-0.82813 -0.76563,-0.84375 -0.76563,-2.40625 0,-1 0.32813,-1.75 0.34375,-0.76562 1.01562,-1.14062 0.6875,-0.375 1.5,-0.375 1,0 1.64063,0.51562 0.65625,0.5 0.84375,1.45313 l -1.03125,0.15625 q -0.14063,-0.625 -0.51563,-0.9375 -0.375,-0.32813 -0.90625,-0.32813 -0.79687,0 -1.29687,0.57813 -0.5,0.5625 -0.5,1.79687 0,1.26563 0.48437,1.82813 0.48438,0.5625 1.25,0.5625 0.625,0 1.03125,-0.375 0.42188,-0.375 0.54688,-1.17188 z m 6,1.51563 q -0.59375,0.5 -1.14063,0.70312 -0.53125,0.20313 -1.15625,0.20313 -1.03125,0 -1.57812,-0.5 -0.54688,-0.5 -0.54688,-1.28125 0,-0.45313 0.20313,-0.82813 0.20312,-0.39062 0.54687,-0.60937 0.34375,-0.23438 0.76563,-0.34375 0.29687,-0.0937 0.9375,-0.17188 1.26562,-0.14062 1.875,-0.35937 0,-0.21875 0,-0.26563 0,-0.65625 -0.29688,-0.92187 -0.40625,-0.34375 -1.20312,-0.34375 -0.73438,0 -1.09375,0.26562 -0.35938,0.25 -0.53125,0.90625 l -1.03125,-0.14062 q 0.14062,-0.65625 0.46875,-1.0625 0.32812,-0.40625 0.9375,-0.625 0.60937,-0.21875 1.40625,-0.21875 0.79687,0 1.29687,0.1875 0.5,0.1875 0.73438,0.46875 0.23437,0.28125 0.32812,0.71875 0.0469,0.26562 0.0469,0.96875 v 1.40625 q 0,1.46875 0.0625,1.85937 0.0781,0.39063 0.28125,0.75 h -1.10938 q -0.15625,-0.32812 -0.20312,-0.76562 z m -0.0937,-2.35938 q -0.57813,0.23438 -1.71875,0.40625 -0.65625,0.0937 -0.92188,0.21875 -0.26562,0.10938 -0.42187,0.32813 -0.14063,0.21875 -0.14063,0.5 0,0.42187 0.3125,0.70312 0.32813,0.28125 0.9375,0.28125 0.60938,0 1.07813,-0.26562 0.48437,-0.26563 0.70312,-0.73438 0.17188,-0.35937 0.17188,-1.04687 z m 2.68945,3.125 v -6.21875 h 0.95312 v 0.9375 q 0.35938,-0.65625 0.65625,-0.85937 0.3125,-0.21875 0.6875,-0.21875 0.53125,0 1.07813,0.32812 l -0.35938,0.98438 q -0.39062,-0.23438 -0.76562,-0.23438 -0.35938,0 -0.64063,0.21875 -0.26562,0.20313 -0.375,0.57813 -0.1875,0.5625 -0.1875,1.21875 v 3.26562 z m 3.58984,-1.85937 1.03125,-0.15625 q 0.0937,0.625 0.48438,0.95312 0.40625,0.32813 1.14062,0.32813 0.71875,0 1.0625,-0.28125 0.35938,-0.29688 0.35938,-0.70313 0,-0.35937 -0.3125,-0.5625 -0.21875,-0.14062 -1.07813,-0.35937 -1.15625,-0.29688 -1.60937,-0.5 -0.4375,-0.21875 -0.67188,-0.59375 -0.23437,-0.375 -0.23437,-0.84375 0,-0.40625 0.1875,-0.76563 0.1875,-0.35937 0.51562,-0.59375 0.25,-0.17187 0.67188,-0.29687 0.42187,-0.125 0.92187,-0.125 0.71875,0 1.26563,0.21875 0.5625,0.20312 0.82812,0.5625 0.26563,0.35937 0.35938,0.95312 l -1.03125,0.14063 q -0.0625,-0.46875 -0.40625,-0.73438 -0.32813,-0.28125 -0.95313,-0.28125 -0.71875,0 -1.03125,0.25 -0.3125,0.23438 -0.3125,0.5625 0,0.20313 0.125,0.35938 0.14063,0.17187 0.40625,0.28125 0.15625,0.0625 0.9375,0.26562 1.125,0.3125 1.5625,0.5 0.4375,0.1875 0.6875,0.54688 0.25,0.35937 0.25,0.90625 0,0.53125 -0.3125,1 -0.29687,0.45312 -0.875,0.71875 -0.57812,0.25 -1.3125,0.25 -1.21875,0 -1.85937,-0.5 -0.625,-0.51563 -0.79688,-1.5 z m 6.42188,-5.51563 v -1.21875 h 1.0625 v 1.21875 z m 0,7.375 v -6.21875 h 1.0625 v 6.21875 z m 4.96289,-0.9375 0.15625,0.92188 q -0.45313,0.0937 -0.79688,0.0937 -0.57812,0 -0.89062,-0.17188 -0.3125,-0.1875 -0.45313,-0.48437 -0.125,-0.29688 -0.125,-1.25 v -3.57813 h -0.76562 v -0.8125 h 0.76562 v -1.54687 l 1.04688,-0.625 v 2.17187 h 1.0625 v 0.8125 h -1.0625 v 3.64063 q 0,0.45312 0.0469,0.57812 0.0625,0.125 0.1875,0.20313 0.125,0.0781 0.35938,0.0781 0.1875,0 0.46875,-0.0312 z m 0.99023,3.32813 -0.125,-0.98438 q 0.34375,0.0937 0.60938,0.0937 0.34375,0 0.54687,-0.125 0.21875,-0.10937 0.35938,-0.3125 0.0937,-0.17187 0.32812,-0.79687 0.0156,-0.0781 0.0937,-0.25 l -2.375,-6.23438 h 1.14063 l 1.29687,3.59375 q 0.25,0.6875 0.45313,1.45313 0.1875,-0.73438 0.4375,-1.42188 l 1.32812,-3.625 h 1.04688 l -2.35938,6.32813 q -0.39062,1.01562 -0.59375,1.40625 -0.28125,0.53125 -0.65625,0.76562 -0.35937,0.25 -0.85937,0.25 -0.29688,0 -0.67188,-0.14062 z m 9.47461,-2.39063 v -8.59375 h 1.71875 l 2.03125,6.07813 q 0.28125,0.85937 0.40625,1.28125 0.14063,-0.46875 0.45313,-1.375 l 2.0625,-5.98438 h 1.53125 v 8.59375 h -1.09375 v -7.1875 l -2.5,7.1875 H 444.687 l -2.48438,-7.3125 v 7.3125 z m 9.51172,-3.10937 q 0,-1.73438 0.95313,-2.5625 0.79687,-0.6875 1.95312,-0.6875 1.28125,0 2.09375,0.84375 0.82813,0.82812 0.82813,2.3125 0,1.20312 -0.35938,1.89062 -0.35937,0.6875 -1.0625,1.07813 -0.6875,0.375 -1.5,0.375 -1.29687,0 -2.10937,-0.82813 -0.79688,-0.84375 -0.79688,-2.42187 z m 1.07813,0 q 0,1.1875 0.51562,1.78125 0.53125,0.59375 1.3125,0.59375 0.79688,0 1.3125,-0.59375 0.51563,-0.59375 0.51563,-1.8125 0,-1.15625 -0.53125,-1.75 -0.51563,-0.59375 -1.29688,-0.59375 -0.78125,0 -1.3125,0.59375 -0.51562,0.57812 -0.51562,1.78125 z m 10.01757,3.10937 v -0.78125 q -0.59375,0.92188 -1.73437,0.92188 -0.75,0 -1.375,-0.40625 -0.625,-0.42188 -0.96875,-1.15625 -0.34375,-0.73438 -0.34375,-1.6875 0,-0.92188 0.3125,-1.6875 0.3125,-0.76563 0.9375,-1.15625 0.625,-0.40625 1.39062,-0.40625 0.5625,0 1,0.23437 0.4375,0.23438 0.71875,0.60938 v -3.07813 h 1.04688 v 8.59375 z m -3.32812,-3.10937 q 0,1.20312 0.5,1.79687 0.5,0.57813 1.1875,0.57813 0.6875,0 1.17187,-0.5625 0.48438,-0.5625 0.48438,-1.71875 0,-1.28125 -0.5,-1.875 -0.48438,-0.59375 -1.20313,-0.59375 -0.70312,0 -1.17187,0.57812 -0.46875,0.5625 -0.46875,1.79688 z m 10.2207,1.10937 1.09375,0.125 q -0.25,0.95313 -0.95312,1.48438 -0.70313,0.53125 -1.78125,0.53125 -1.35938,0 -2.17188,-0.84375 -0.79687,-0.84375 -0.79687,-2.35938 0,-1.5625 0.8125,-2.42187 0.8125,-0.875 2.09375,-0.875 1.25,0 2.03125,0.84375 0.79687,0.84375 0.79687,2.39062 0,0.0937 0,0.28125 h -4.64062 q 0.0625,1.03125 0.57812,1.57813 0.51563,0.53125 1.29688,0.53125 0.57812,0 0.98437,-0.29688 0.42188,-0.3125 0.65625,-0.96875 z m -3.45312,-1.70312 h 3.46875 q -0.0625,-0.79688 -0.39063,-1.1875 -0.51562,-0.60938 -1.3125,-0.60938 -0.73437,0 -1.23437,0.48438 -0.48438,0.48437 -0.53125,1.3125 z"
       fill-rule="nonzero"
       id="path1092" />
    <path
       fill="#000000"
       d="m 411.93695,163.57787 1.125,0.29687 q -0.35937,1.39063 -1.28125,2.125 -0.92187,0.73438 -2.26562,0.73438 -1.39063,0 -2.26563,-0.5625 -0.875,-0.5625 -1.32812,-1.625 -0.45313,-1.07813 -0.45313,-2.3125 0,-1.34375 0.51563,-2.34375 0.51562,-1 1.45312,-1.51563 0.95313,-0.51562 2.09375,-0.51562 1.28125,0 2.15625,0.65625 0.89063,0.65625 1.23438,1.84375 l -1.125,0.26562 q -0.29688,-0.9375 -0.875,-1.35937 -0.5625,-0.4375 -1.42188,-0.4375 -0.98437,0 -1.65625,0.48437 -0.65625,0.46875 -0.9375,1.26563 -0.26562,0.79687 -0.26562,1.65625 0,1.09375 0.3125,1.90625 0.32812,0.8125 1,1.21875 0.67187,0.40625 1.46875,0.40625 0.95312,0 1.60937,-0.54688 0.67188,-0.54687 0.90625,-1.64062 z m 6.46289,2.25 q -0.59375,0.5 -1.14062,0.70312 -0.53125,0.20313 -1.15625,0.20313 -1.03125,0 -1.57813,-0.5 -0.54687,-0.5 -0.54687,-1.28125 0,-0.45313 0.20312,-0.82813 0.20313,-0.39062 0.54688,-0.60937 0.34375,-0.23438 0.76562,-0.34375 0.29688,-0.0937 0.9375,-0.17188 1.26563,-0.14062 1.875,-0.35937 0,-0.21875 0,-0.26563 0,-0.65625 -0.29687,-0.92187 -0.40625,-0.34375 -1.20313,-0.34375 -0.73437,0 -1.09375,0.26562 -0.35937,0.25 -0.53125,0.90625 l -1.03125,-0.14062 q 0.14063,-0.65625 0.46875,-1.0625 0.32813,-0.40625 0.9375,-0.625 0.60938,-0.21875 1.40625,-0.21875 0.79688,0 1.29688,0.1875 0.5,0.1875 0.73437,0.46875 0.23438,0.28125 0.32813,0.71875 0.0469,0.26562 0.0469,0.96875 v 1.40625 q 0,1.46875 0.0625,1.85937 0.0781,0.39063 0.28125,0.75 H 418.603 q -0.15625,-0.32812 -0.20313,-0.76562 z m -0.0937,-2.35938 q -0.57812,0.23438 -1.71875,0.40625 -0.65625,0.0937 -0.92187,0.21875 -0.26563,0.10938 -0.42188,0.32813 -0.14062,0.21875 -0.14062,0.5 0,0.42187 0.3125,0.70312 0.32812,0.28125 0.9375,0.28125 0.60937,0 1.07812,-0.26562 0.48438,-0.26563 0.70313,-0.73438 0.17187,-0.35937 0.17187,-1.04687 z m 2.70508,3.125 v -6.21875 h 0.9375 v 0.875 q 0.29687,-0.46875 0.78125,-0.73437 0.48437,-0.28125 1.10937,-0.28125 0.6875,0 1.125,0.28125 0.45313,0.28125 0.625,0.79687 0.75,-1.07812 1.92188,-1.07812 0.9375,0 1.42187,0.51562 0.5,0.5 0.5,1.57813 v 4.26562 h -1.04687 v -3.92187 q 0,-0.625 -0.10938,-0.90625 -0.0937,-0.28125 -0.35937,-0.45313 -0.26563,-0.17187 -0.64063,-0.17187 -0.65625,0 -1.09375,0.4375 -0.42187,0.4375 -0.42187,1.40625 v 3.60937 h -1.0625 v -4.04687 q 0,-0.70313 -0.26563,-1.04688 -0.25,-0.35937 -0.82812,-0.35937 -0.45313,0 -0.82813,0.23437 -0.375,0.23438 -0.54687,0.6875 -0.17188,0.45313 -0.17188,1.29688 v 3.23437 z m 9.99609,2.39063 v -8.60938 h 0.95313 v 0.79688 q 0.34375,-0.46875 0.76562,-0.70313 0.4375,-0.23437 1.04688,-0.23437 0.79687,0 1.40625,0.40625 0.60937,0.40625 0.90625,1.15625 0.3125,0.75 0.3125,1.64062 0,0.95313 -0.34375,1.71875 -0.32813,0.76563 -0.98438,1.17188 -0.65625,0.40625 -1.375,0.40625 -0.53125,0 -0.95312,-0.21875 -0.42188,-0.23438 -0.6875,-0.5625 v 3.03125 z m 0.95313,-5.46875 q 0,1.20312 0.48437,1.78125 0.48438,0.5625 1.17188,0.5625 0.70312,0 1.20312,-0.59375 0.5,-0.59375 0.5,-1.84375 0,-1.1875 -0.48437,-1.76563 -0.48438,-0.59375 -1.17188,-0.59375 -0.67187,0 -1.1875,0.625 -0.51562,0.625 -0.51562,1.82813 z m 9.7832,2.3125 q -0.59375,0.5 -1.14062,0.70312 -0.53125,0.20313 -1.15625,0.20313 -1.03125,0 -1.57813,-0.5 -0.54687,-0.5 -0.54687,-1.28125 0,-0.45313 0.20312,-0.82813 0.20313,-0.39062 0.54688,-0.60937 0.34375,-0.23438 0.76562,-0.34375 0.29688,-0.0937 0.9375,-0.17188 1.26563,-0.14062 1.875,-0.35937 0,-0.21875 0,-0.26563 0,-0.65625 -0.29687,-0.92187 -0.40625,-0.34375 -1.20313,-0.34375 -0.73437,0 -1.09375,0.26562 -0.35937,0.25 -0.53125,0.90625 l -1.03125,-0.14062 q 0.14063,-0.65625 0.46875,-1.0625 0.32813,-0.40625 0.9375,-0.625 0.60938,-0.21875 1.40625,-0.21875 0.79688,0 1.29688,0.1875 0.5,0.1875 0.73437,0.46875 0.23438,0.28125 0.32813,0.71875 0.0469,0.26562 0.0469,0.96875 v 1.40625 q 0,1.46875 0.0625,1.85937 0.0781,0.39063 0.28125,0.75 h -1.10937 q -0.15625,-0.32812 -0.20313,-0.76562 z m -0.0937,-2.35938 q -0.57812,0.23438 -1.71875,0.40625 -0.65625,0.0937 -0.92187,0.21875 -0.26563,0.10938 -0.42188,0.32813 -0.14062,0.21875 -0.14062,0.5 0,0.42187 0.3125,0.70312 0.32812,0.28125 0.9375,0.28125 0.60937,0 1.07812,-0.26562 0.48438,-0.26563 0.70313,-0.73438 0.17187,-0.35937 0.17187,-1.04687 z m 2.70508,-4.25 v -1.21875 h 1.0625 v 1.21875 z m 0,7.375 v -6.21875 h 1.0625 v 6.21875 z m 2.46289,0.51563 1.03125,0.15625 q 0.0625,0.46875 0.35937,0.6875 0.39063,0.29687 1.0625,0.29687 0.73438,0 1.125,-0.29687 0.40625,-0.29688 0.54688,-0.8125 0.0937,-0.32813 0.0781,-1.35938 -0.6875,0.8125 -1.71875,0.8125 -1.28125,0 -1.98437,-0.92187 -0.70313,-0.9375 -0.70313,-2.21875 0,-0.89063 0.3125,-1.64063 0.32813,-0.76562 0.9375,-1.17187 0.60938,-0.40625 1.4375,-0.40625 1.10938,0 1.82813,0.89062 v -0.75 h 0.96875 v 5.375 q 0,1.45313 -0.29688,2.0625 -0.29687,0.60938 -0.9375,0.95313 -0.64062,0.35937 -1.57812,0.35937 -1.10938,0 -1.79688,-0.5 -0.6875,-0.5 -0.67187,-1.51562 z m 0.875,-3.73438 q 0,1.21875 0.48437,1.78125 0.48438,0.5625 1.21875,0.5625 0.73438,0 1.21875,-0.5625 0.5,-0.5625 0.5,-1.75 0,-1.14062 -0.51562,-1.71875 -0.5,-0.57812 -1.21875,-0.57812 -0.70313,0 -1.20313,0.57812 -0.48437,0.5625 -0.48437,1.6875 z m 6.00195,3.21875 v -6.21875 h 0.9375 v 0.875 q 0.6875,-1.01562 1.98438,-1.01562 0.5625,0 1.03125,0.20312 0.48437,0.20313 0.71875,0.53125 0.23437,0.32813 0.32812,0.76563 0.0469,0.29687 0.0469,1.03125 v 3.82812 h -1.04688 v -3.78125 q 0,-0.65625 -0.125,-0.96875 -0.125,-0.3125 -0.4375,-0.5 -0.3125,-0.20312 -0.73437,-0.20312 -0.67188,0 -1.17188,0.4375 -0.48437,0.42187 -0.48437,1.60937 v 3.40625 z"
       fill-rule="nonzero"
       id="path1094" />
    <path
       fill="#000000"
       d="m 393.02972,183.12474 q -0.875,-1.10938 -1.48438,-2.57813 -0.59375,-1.48437 -0.59375,-3.0625 0,-1.39062 0.4375,-2.67187 0.53125,-1.48438 1.64063,-2.95313 h 0.75 q -0.70313,1.21875 -0.9375,1.73438 -0.35938,0.8125 -0.5625,1.6875 -0.25,1.09375 -0.25,2.20312 0,2.82813 1.75,5.64063 z m 1.55859,-4.39063 1.03125,-0.15625 q 0.0937,0.625 0.48438,0.95313 0.40625,0.32812 1.14062,0.32812 0.71875,0 1.0625,-0.28125 0.35938,-0.29687 0.35938,-0.70312 0,-0.35938 -0.3125,-0.5625 -0.21875,-0.14063 -1.07813,-0.35938 -1.15625,-0.29687 -1.60937,-0.5 -0.4375,-0.21875 -0.67188,-0.59375 -0.23437,-0.375 -0.23437,-0.84375 0,-0.40625 0.1875,-0.76562 0.1875,-0.35938 0.51562,-0.59375 0.25,-0.17188 0.67188,-0.29688 0.42187,-0.125 0.92187,-0.125 0.71875,0 1.26563,0.21875 0.5625,0.20313 0.82812,0.5625 0.26563,0.35938 0.35938,0.95313 l -1.03125,0.14062 q -0.0625,-0.46875 -0.40625,-0.73437 -0.32813,-0.28125 -0.95313,-0.28125 -0.71875,0 -1.03125,0.25 -0.3125,0.23437 -0.3125,0.5625 0,0.20312 0.125,0.35937 0.14063,0.17188 0.40625,0.28125 0.15625,0.0625 0.9375,0.26563 1.125,0.3125 1.5625,0.5 0.4375,0.1875 0.6875,0.54687 0.25,0.35938 0.25,0.90625 0,0.53125 -0.3125,1 -0.29687,0.45313 -0.875,0.71875 -0.57812,0.25 -1.3125,0.25 -1.21875,0 -1.85937,-0.5 -0.625,-0.51562 -0.79688,-1.5 z m 6.42188,1.85938 v -6.21875 h 0.9375 v 0.875 q 0.29687,-0.46875 0.78125,-0.73438 0.48437,-0.28125 1.10937,-0.28125 0.6875,0 1.125,0.28125 0.45313,0.28125 0.625,0.79688 0.75,-1.07813 1.92188,-1.07813 0.9375,0 1.42187,0.51563 0.5,0.5 0.5,1.57812 v 4.26563 h -1.04687 v -3.92188 q 0,-0.625 -0.10938,-0.90625 -0.0937,-0.28125 -0.35937,-0.45312 -0.26563,-0.17188 -0.64063,-0.17188 -0.65625,0 -1.09375,0.4375 -0.42187,0.4375 -0.42187,1.40625 v 3.60938 h -1.0625 v -4.04688 q 0,-0.70312 -0.26563,-1.04687 -0.25,-0.35938 -0.82812,-0.35938 -0.45313,0 -0.82813,0.23438 -0.375,0.23437 -0.54687,0.6875 -0.17188,0.45312 -0.17188,1.29687 v 3.23438 z m 14.05859,-0.76563 q -0.59375,0.5 -1.14062,0.70313 -0.53125,0.20312 -1.15625,0.20312 -1.03125,0 -1.57813,-0.5 -0.54687,-0.5 -0.54687,-1.28125 0,-0.45312 0.20312,-0.82812 0.20313,-0.39063 0.54688,-0.60938 0.34375,-0.23437 0.76562,-0.34375 0.29688,-0.0937 0.9375,-0.17187 1.26563,-0.14063 1.875,-0.35938 0,-0.21875 0,-0.26562 0,-0.65625 -0.29687,-0.92188 -0.40625,-0.34375 -1.20313,-0.34375 -0.73437,0 -1.09375,0.26563 -0.35937,0.25 -0.53125,0.90625 l -1.03125,-0.14063 q 0.14063,-0.65625 0.46875,-1.0625 0.32813,-0.40625 0.9375,-0.625 0.60938,-0.21875 1.40625,-0.21875 0.79688,0 1.29688,0.1875 0.5,0.1875 0.73437,0.46875 0.23438,0.28125 0.32813,0.71875 0.0469,0.26563 0.0469,0.96875 v 1.40625 q 0,1.46875 0.0625,1.85938 0.0781,0.39062 0.28125,0.75 h -1.10937 q -0.15625,-0.32813 -0.20313,-0.76563 z m -0.0937,-2.35937 q -0.57812,0.23437 -1.71875,0.40625 -0.65625,0.0937 -0.92187,0.21875 -0.26563,0.10937 -0.42188,0.32812 -0.14062,0.21875 -0.14062,0.5 0,0.42188 0.3125,0.70313 0.32812,0.28125 0.9375,0.28125 0.60937,0 1.07812,-0.26563 0.48438,-0.26562 0.70313,-0.73437 0.17187,-0.35938 0.17187,-1.04688 z m 2.68946,3.125 v -6.21875 h 0.95312 v 0.9375 q 0.35938,-0.65625 0.65625,-0.85938 0.3125,-0.21875 0.6875,-0.21875 0.53125,0 1.07813,0.32813 l -0.35938,0.98437 q -0.39062,-0.23437 -0.76562,-0.23437 -0.35938,0 -0.64063,0.21875 -0.26562,0.20312 -0.375,0.57812 -0.1875,0.5625 -0.1875,1.21875 v 3.26563 z m 6.30859,-0.9375 0.15625,0.92187 q -0.45313,0.0937 -0.79688,0.0937 -0.57812,0 -0.89062,-0.17187 -0.3125,-0.1875 -0.45313,-0.48438 -0.125,-0.29687 -0.125,-1.25 v -3.57812 h -0.76562 v -0.8125 h 0.76562 v -1.54688 l 1.04688,-0.625 v 2.17188 h 1.0625 v 0.8125 h -1.0625 v 3.64062 q 0,0.45313 0.0469,0.57813 0.0625,0.125 0.1875,0.20312 0.125,0.0781 0.35938,0.0781 0.1875,0 0.46875,-0.0312 z m 8.43359,-1.34375 1.03125,0.14062 q -0.17187,1.0625 -0.875,1.67188 -0.70312,0.60937 -1.71875,0.60937 -1.28125,0 -2.0625,-0.82812 -0.76562,-0.84375 -0.76562,-2.40625 0,-1 0.32812,-1.75 0.34375,-0.76563 1.01563,-1.14063 0.6875,-0.375 1.5,-0.375 1,0 1.64062,0.51563 0.65625,0.5 0.84375,1.45312 l -1.03125,0.15625 q -0.14062,-0.625 -0.51562,-0.9375 -0.375,-0.32812 -0.90625,-0.32812 -0.79688,0 -1.29688,0.57812 -0.5,0.5625 -0.5,1.79688 0,1.26562 0.48438,1.82812 0.48437,0.5625 1.25,0.5625 0.625,0 1.03125,-0.375 0.42187,-0.375 0.54687,-1.17187 z m 1.54688,-0.82813 q 0,-1.73437 0.95312,-2.5625 0.79688,-0.6875 1.95313,-0.6875 1.28125,0 2.09375,0.84375 0.82812,0.82813 0.82812,2.3125 0,1.20313 -0.35937,1.89063 -0.35938,0.6875 -1.0625,1.07812 -0.6875,0.375 -1.5,0.375 -1.29688,0 -2.10938,-0.82812 -0.79687,-0.84375 -0.79687,-2.42188 z m 1.07812,0 q 0,1.1875 0.51563,1.78125 0.53125,0.59375 1.3125,0.59375 0.79687,0 1.3125,-0.59375 0.51562,-0.59375 0.51562,-1.8125 0,-1.15625 -0.53125,-1.75 -0.51562,-0.59375 -1.29687,-0.59375 -0.78125,0 -1.3125,0.59375 -0.51563,0.57813 -0.51563,1.78125 z m 5.98633,3.10938 v -6.21875 h 0.9375 v 0.875 q 0.6875,-1.01563 1.98438,-1.01563 0.5625,0 1.03125,0.20313 0.48437,0.20312 0.71875,0.53125 0.23437,0.32812 0.32812,0.76562 0.0469,0.29688 0.0469,1.03125 v 3.82813 H 445.018 v -3.78125 q 0,-0.65625 -0.125,-0.96875 -0.125,-0.3125 -0.4375,-0.5 -0.3125,-0.20313 -0.73437,-0.20313 -0.67188,0 -1.17188,0.4375 -0.48437,0.42188 -0.48437,1.60938 v 3.40625 z m 8.9707,-0.9375 0.15625,0.92187 q -0.45312,0.0937 -0.79687,0.0937 -0.57813,0 -0.89063,-0.17187 -0.3125,-0.1875 -0.45312,-0.48438 -0.125,-0.29687 -0.125,-1.25 v -3.57812 h -0.76563 v -0.8125 h 0.76563 v -1.54688 l 1.04687,-0.625 v 2.17188 h 1.0625 v 0.8125 h -1.0625 v 3.64062 q 0,0.45313 0.0469,0.57813 0.0625,0.125 0.1875,0.20312 0.125,0.0781 0.35937,0.0781 0.1875,0 0.46875,-0.0312 z m 1.02149,0.9375 v -6.21875 h 0.95312 v 0.9375 q 0.35938,-0.65625 0.65625,-0.85938 0.3125,-0.21875 0.6875,-0.21875 0.53125,0 1.07813,0.32813 l -0.35938,0.98437 q -0.39062,-0.23437 -0.76562,-0.23437 -0.35938,0 -0.64063,0.21875 -0.26562,0.20312 -0.375,0.57812 -0.1875,0.5625 -0.1875,1.21875 v 3.26563 z m 8.07422,-0.76563 q -0.59375,0.5 -1.14063,0.70313 -0.53125,0.20312 -1.15625,0.20312 -1.03125,0 -1.57812,-0.5 -0.54688,-0.5 -0.54688,-1.28125 0,-0.45312 0.20313,-0.82812 0.20312,-0.39063 0.54687,-0.60938 0.34375,-0.23437 0.76563,-0.34375 0.29687,-0.0937 0.9375,-0.17187 1.26562,-0.14063 1.875,-0.35938 0,-0.21875 0,-0.26562 0,-0.65625 -0.29688,-0.92188 -0.40625,-0.34375 -1.20312,-0.34375 -0.73438,0 -1.09375,0.26563 -0.35938,0.25 -0.53125,0.90625 l -1.03125,-0.14063 q 0.14062,-0.65625 0.46875,-1.0625 0.32812,-0.40625 0.9375,-0.625 0.60937,-0.21875 1.40625,-0.21875 0.79687,0 1.29687,0.1875 0.5,0.1875 0.73438,0.46875 0.23437,0.28125 0.32812,0.71875 0.0469,0.26563 0.0469,0.96875 v 1.40625 q 0,1.46875 0.0625,1.85938 0.0781,0.39062 0.28125,0.75 h -1.10938 q -0.15625,-0.32813 -0.20312,-0.76563 z m -0.0937,-2.35937 q -0.57813,0.23437 -1.71875,0.40625 -0.65625,0.0937 -0.92188,0.21875 -0.26562,0.10937 -0.42187,0.32812 -0.14063,0.21875 -0.14063,0.5 0,0.42188 0.3125,0.70313 0.32813,0.28125 0.9375,0.28125 0.60938,0 1.07813,-0.26563 0.48437,-0.26562 0.70312,-0.73437 0.17188,-0.35938 0.17188,-1.04688 z m 6.76758,0.84375 1.03125,0.14062 q -0.17188,1.0625 -0.875,1.67188 -0.70313,0.60937 -1.71875,0.60937 -1.28125,0 -2.0625,-0.82812 -0.76563,-0.84375 -0.76563,-2.40625 0,-1 0.32813,-1.75 0.34375,-0.76563 1.01562,-1.14063 0.6875,-0.375 1.5,-0.375 1,0 1.64063,0.51563 0.65625,0.5 0.84375,1.45312 l -1.03125,0.15625 q -0.14063,-0.625 -0.51563,-0.9375 -0.375,-0.32812 -0.90625,-0.32812 -0.79687,0 -1.29687,0.57812 -0.5,0.5625 -0.5,1.79688 0,1.26562 0.48437,1.82812 0.48438,0.5625 1.25,0.5625 0.625,0 1.03125,-0.375 0.42188,-0.375 0.54688,-1.17187 z m 4.23437,1.34375 0.15625,0.92187 q -0.45312,0.0937 -0.79687,0.0937 -0.57813,0 -0.89063,-0.17187 -0.3125,-0.1875 -0.45312,-0.48438 -0.125,-0.29687 -0.125,-1.25 v -3.57812 h -0.76563 v -0.8125 h 0.76563 v -1.54688 l 1.04687,-0.625 v 2.17188 h 1.0625 v 0.8125 h -1.0625 v 3.64062 q 0,0.45313 0.0469,0.57813 0.0625,0.125 0.1875,0.20312 0.125,0.0781 0.35937,0.0781 0.1875,0 0.46875,-0.0312 z m 1.72461,3.46875 h -0.75 q 1.75,-2.8125 1.75,-5.64063 0,-1.09375 -0.25,-2.1875 -0.20312,-0.875 -0.5625,-1.6875 -0.23437,-0.51562 -0.9375,-1.75 h 0.75 q 1.09375,1.46875 1.625,2.95313 0.45313,1.28125 0.45313,2.67187 0,1.57813 -0.60938,3.0625 -0.60937,1.46875 -1.46875,2.57813 z"
       fill-rule="nonzero"
       id="path1096" />
    <path
       fill="#000000"
       fill-opacity="0"
       d="m 189.19948,263.8399 h 92.03148 v 33.92126 h -92.03148 z"
       fill-rule="evenodd"
       id="path1098" />
    <path
       fill="#000000"
       d="m 198.18385,284.3599 3.29687,-8.59375 h 1.21875 l 3.51563,8.59375 h -1.28125 l -1.01563,-2.60938 h -3.57812 l -0.95313,2.60938 z m 2.48437,-3.53125 h 2.90625 l -0.89062,-2.375 q -0.42188,-1.07813 -0.60938,-1.78125 -0.17187,0.82812 -0.46875,1.64062 z m 10.36329,3.53125 v -0.78125 q -0.59375,0.92187 -1.73438,0.92187 -0.75,0 -1.375,-0.40625 -0.625,-0.42187 -0.96875,-1.15625 -0.34375,-0.73437 -0.34375,-1.6875 0,-0.92187 0.3125,-1.6875 0.3125,-0.76562 0.9375,-1.15625 0.625,-0.40625 1.39063,-0.40625 0.5625,0 1,0.23438 0.4375,0.23437 0.71875,0.60937 v -3.07812 h 1.04687 v 8.59375 z m -3.32813,-3.10938 q 0,1.20313 0.5,1.79688 0.5,0.57812 1.1875,0.57812 0.6875,0 1.17188,-0.5625 0.48437,-0.5625 0.48437,-1.71875 0,-1.28125 -0.5,-1.875 -0.48437,-0.59375 -1.20312,-0.59375 -0.70313,0 -1.17188,0.57813 -0.46875,0.5625 -0.46875,1.79687 z m 7.68945,3.10938 -2.35937,-6.21875 h 1.10937 l 1.34375,3.71875 q 0.20313,0.60937 0.39063,1.25 0.14062,-0.48438 0.39062,-1.17188 l 1.39063,-3.79687 h 1.07812 l -2.35937,6.21875 z m 8.53125,-2 1.09375,0.125 q -0.25,0.95312 -0.95312,1.48437 -0.70313,0.53125 -1.78125,0.53125 -1.35938,0 -2.17188,-0.84375 -0.79687,-0.84375 -0.79687,-2.35937 0,-1.5625 0.8125,-2.42188 0.8125,-0.875 2.09375,-0.875 1.25,0 2.03125,0.84375 0.79687,0.84375 0.79687,2.39063 0,0.0937 0,0.28125 h -4.64062 q 0.0625,1.03125 0.57812,1.57812 0.51563,0.53125 1.29688,0.53125 0.57812,0 0.98437,-0.29687 0.42188,-0.3125 0.65625,-0.96875 z m -3.45312,-1.70313 h 3.46875 q -0.0625,-0.79687 -0.39063,-1.1875 -0.51562,-0.60937 -1.3125,-0.60937 -0.73437,0 -1.23437,0.48437 -0.48438,0.48438 -0.53125,1.3125 z m 5.86133,3.70313 v -6.21875 h 0.95312 v 0.9375 q 0.35938,-0.65625 0.65625,-0.85938 0.3125,-0.21875 0.6875,-0.21875 0.53125,0 1.07813,0.32813 l -0.35938,0.98437 q -0.39062,-0.23437 -0.76562,-0.23437 -0.35938,0 -0.64063,0.21875 -0.26562,0.20312 -0.375,0.57812 -0.1875,0.5625 -0.1875,1.21875 v 3.26563 z m 6.30859,-0.9375 0.15625,0.92187 q -0.45312,0.0937 -0.79687,0.0937 -0.57813,0 -0.89063,-0.17187 -0.3125,-0.1875 -0.45312,-0.48438 -0.125,-0.29687 -0.125,-1.25 v -3.57812 h -0.76563 v -0.8125 h 0.76563 v -1.54688 l 1.04687,-0.625 v 2.17188 h 1.0625 v 0.8125 h -1.0625 v 3.64062 q 0,0.45313 0.0469,0.57813 0.0625,0.125 0.1875,0.20312 0.125,0.0781 0.35937,0.0781 0.1875,0 0.46875,-0.0312 z m 1.03711,-6.4375 v -1.21875 h 1.0625 v 1.21875 z m 0,7.375 v -6.21875 h 1.0625 v 6.21875 z m 2.24414,-1.85938 1.03125,-0.15625 q 0.0937,0.625 0.48438,0.95313 0.40625,0.32812 1.14062,0.32812 0.71875,0 1.0625,-0.28125 0.35938,-0.29687 0.35938,-0.70312 0,-0.35938 -0.3125,-0.5625 -0.21875,-0.14063 -1.07813,-0.35938 -1.15625,-0.29687 -1.60937,-0.5 -0.4375,-0.21875 -0.67188,-0.59375 -0.23437,-0.375 -0.23437,-0.84375 0,-0.40625 0.1875,-0.76562 0.1875,-0.35938 0.51562,-0.59375 0.25,-0.17188 0.67188,-0.29688 0.42187,-0.125 0.92187,-0.125 0.71875,0 1.26563,0.21875 0.5625,0.20313 0.82812,0.5625 0.26563,0.35938 0.35938,0.95313 l -1.03125,0.14062 q -0.0625,-0.46875 -0.40625,-0.73437 -0.32813,-0.28125 -0.95313,-0.28125 -0.71875,0 -1.03125,0.25 -0.3125,0.23437 -0.3125,0.5625 0,0.20312 0.125,0.35937 0.14063,0.17188 0.40625,0.28125 0.15625,0.0625 0.9375,0.26563 1.125,0.3125 1.5625,0.5 0.4375,0.1875 0.6875,0.54687 0.25,0.35938 0.25,0.90625 0,0.53125 -0.3125,1 -0.29687,0.45313 -0.875,0.71875 -0.57812,0.25 -1.3125,0.25 -1.21875,0 -1.85937,-0.5 -0.625,-0.51562 -0.79688,-1.5 z m 10.67188,-0.14062 1.09375,0.125 q -0.25,0.95312 -0.95313,1.48437 -0.70312,0.53125 -1.78125,0.53125 -1.35937,0 -2.17187,-0.84375 -0.79688,-0.84375 -0.79688,-2.35937 0,-1.5625 0.8125,-2.42188 0.8125,-0.875 2.09375,-0.875 1.25,0 2.03125,0.84375 0.79688,0.84375 0.79688,2.39063 0,0.0937 0,0.28125 h -4.64063 q 0.0625,1.03125 0.57813,1.57812 0.51562,0.53125 1.29687,0.53125 0.57813,0 0.98438,-0.29687 0.42187,-0.3125 0.65625,-0.96875 z m -3.45313,-1.70313 h 3.46875 q -0.0625,-0.79687 -0.39062,-1.1875 -0.51563,-0.60937 -1.3125,-0.60937 -0.73438,0 -1.23438,0.48437 -0.48437,0.48438 -0.53125,1.3125 z m 5.86133,3.70313 v -6.21875 h 0.95312 v 0.9375 q 0.35938,-0.65625 0.65625,-0.85938 0.3125,-0.21875 0.6875,-0.21875 0.53125,0 1.07813,0.32813 l -0.35938,0.98437 q -0.39062,-0.23437 -0.76562,-0.23437 -0.35938,0 -0.64063,0.21875 -0.26562,0.20312 -0.375,0.57812 -0.1875,0.5625 -0.1875,1.21875 v 3.26563 z"
       fill-rule="nonzero"
       id="path1100" />
    <path
       fill="#000000"
       fill-opacity="0"
       d="m 373.2467,263.8399 h 117.95276 v 33.92126 H 373.2467 Z"
       fill-rule="evenodd"
       id="path1102" />
    <path
       fill="#000000"
       d="m 389.3092,281.34427 1.125,0.29687 q -0.35938,1.39063 -1.28125,2.125 -0.92188,0.73438 -2.26563,0.73438 -1.39062,0 -2.26562,-0.5625 -0.875,-0.5625 -1.32813,-1.625 -0.45312,-1.07813 -0.45312,-2.3125 0,-1.34375 0.51562,-2.34375 0.51563,-1 1.45313,-1.51563 0.95312,-0.51562 2.09375,-0.51562 1.28125,0 2.15625,0.65625 0.89062,0.65625 1.23437,1.84375 l -1.125,0.26562 q -0.29687,-0.9375 -0.875,-1.35937 -0.5625,-0.4375 -1.42187,-0.4375 -0.98438,0 -1.65625,0.48437 -0.65625,0.46875 -0.9375,1.26563 -0.26563,0.79687 -0.26563,1.65625 0,1.09375 0.3125,1.90625 0.32813,0.8125 1,1.21875 0.67188,0.40625 1.46875,0.40625 0.95313,0 1.60938,-0.54688 0.67187,-0.54687 0.90625,-1.64062 z m 2.00977,-0.0937 q 0,-1.73438 0.95312,-2.5625 0.79688,-0.6875 1.95313,-0.6875 1.28125,0 2.09375,0.84375 0.82812,0.82812 0.82812,2.3125 0,1.20312 -0.35937,1.89062 -0.35938,0.6875 -1.0625,1.07813 -0.6875,0.375 -1.5,0.375 -1.29688,0 -2.10938,-0.82813 -0.79687,-0.84375 -0.79687,-2.42187 z m 1.07812,0 q 0,1.1875 0.51563,1.78125 0.53125,0.59375 1.3125,0.59375 0.79687,0 1.3125,-0.59375 0.51562,-0.59375 0.51562,-1.8125 0,-1.15625 -0.53125,-1.75 -0.51562,-0.59375 -1.29687,-0.59375 -0.78125,0 -1.3125,0.59375 -0.51563,0.57812 -0.51563,1.78125 z m 5.98633,3.10937 v -6.21875 h 0.9375 v 0.875 q 0.29687,-0.46875 0.78125,-0.73437 0.48437,-0.28125 1.10937,-0.28125 0.6875,0 1.125,0.28125 0.45313,0.28125 0.625,0.79687 0.75,-1.07812 1.92188,-1.07812 0.9375,0 1.42187,0.51562 0.5,0.5 0.5,1.57813 v 4.26562 h -1.04687 v -3.92187 q 0,-0.625 -0.10938,-0.90625 -0.0937,-0.28125 -0.35937,-0.45313 -0.26563,-0.17187 -0.64063,-0.17187 -0.65625,0 -1.09375,0.4375 -0.42187,0.4375 -0.42187,1.40625 v 3.60937 h -1.0625 v -4.04687 q 0,-0.70313 -0.26563,-1.04688 -0.25,-0.35937 -0.82812,-0.35937 -0.45313,0 -0.82813,0.23437 -0.375,0.23438 -0.54687,0.6875 -0.17188,0.45313 -0.17188,1.29688 v 3.23437 z m 9.99609,0 v -6.21875 h 0.9375 v 0.875 q 0.29688,-0.46875 0.78125,-0.73437 0.48438,-0.28125 1.10938,-0.28125 0.6875,0 1.125,0.28125 0.45312,0.28125 0.625,0.79687 0.75,-1.07812 1.92187,-1.07812 0.9375,0 1.42188,0.51562 0.5,0.5 0.5,1.57813 v 4.26562 h -1.04688 v -3.92187 q 0,-0.625 -0.10937,-0.90625 -0.0937,-0.28125 -0.35938,-0.45313 -0.26562,-0.17187 -0.64062,-0.17187 -0.65625,0 -1.09375,0.4375 -0.42188,0.4375 -0.42188,1.40625 v 3.60937 h -1.0625 v -4.04687 q 0,-0.70313 -0.26562,-1.04688 -0.25,-0.35937 -0.82813,-0.35937 -0.45312,0 -0.82812,0.23437 -0.375,0.23438 -0.54688,0.6875 -0.17187,0.45313 -0.17187,1.29688 v 3.23437 z m 14.07422,0 v -0.92187 q -0.73437,1.0625 -1.98437,1.0625 -0.54688,0 -1.03125,-0.20313 -0.46875,-0.21875 -0.70313,-0.53125 -0.23437,-0.32812 -0.32812,-0.79687 -0.0625,-0.29688 -0.0625,-0.98438 v -3.84375 h 1.0625 v 3.45313 q 0,0.8125 0.0625,1.10937 0.0937,0.40625 0.40625,0.65625 0.32812,0.23438 0.8125,0.23438 0.46875,0 0.875,-0.23438 0.42187,-0.25 0.59375,-0.67187 0.1875,-0.42188 0.1875,-1.21875 v -3.32813 h 1.04687 v 6.21875 z m 2.5957,0 v -6.21875 h 0.9375 v 0.875 q 0.6875,-1.01562 1.98438,-1.01562 0.5625,0 1.03125,0.20312 0.48437,0.20313 0.71875,0.53125 0.23437,0.32813 0.32812,0.76563 0.0469,0.29687 0.0469,1.03125 v 3.82812 h -1.04688 v -3.78125 q 0,-0.65625 -0.125,-0.96875 -0.125,-0.3125 -0.4375,-0.5 -0.3125,-0.20312 -0.73437,-0.20312 -0.67188,0 -1.17188,0.4375 -0.48437,0.42187 -0.48437,1.60937 v 3.40625 z m 6.67383,-7.375 v -1.21875 h 1.0625 v 1.21875 z m 0,7.375 v -6.21875 h 1.0625 v 6.21875 z m 4.96289,-0.9375 0.15625,0.92188 q -0.45312,0.0937 -0.79687,0.0937 -0.57813,0 -0.89063,-0.17188 -0.3125,-0.1875 -0.45312,-0.48437 -0.125,-0.29688 -0.125,-1.25 v -3.57813 h -0.76563 v -0.8125 h 0.76563 v -1.54687 l 1.04687,-0.625 v 2.17187 h 1.0625 v 0.8125 h -1.0625 v 3.64063 q 0,0.45312 0.0469,0.57812 0.0625,0.125 0.1875,0.20313 0.125,0.0781 0.35937,0.0781 0.1875,0 0.46875,-0.0312 z m 0.99024,3.32813 -0.125,-0.98438 q 0.34375,0.0937 0.60937,0.0937 0.34375,0 0.54688,-0.125 0.21875,-0.10937 0.35937,-0.3125 0.0937,-0.17187 0.32813,-0.79687 0.0156,-0.0781 0.0937,-0.25 l -2.375,-6.23438 h 1.14062 l 1.29688,3.59375 q 0.25,0.6875 0.45312,1.45313 0.1875,-0.73438 0.4375,-1.42188 l 1.32813,-3.625 h 1.04687 l -2.35937,6.32813 q -0.39063,1.01562 -0.59375,1.40625 -0.28125,0.53125 -0.65625,0.76562 -0.35938,0.25 -0.85938,0.25 -0.29687,0 -0.67187,-0.14062 z m 13.45898,-2.39063 v -0.92187 q -0.73437,1.0625 -1.98437,1.0625 -0.54688,0 -1.03125,-0.20313 -0.46875,-0.21875 -0.70313,-0.53125 -0.23437,-0.32812 -0.32812,-0.79687 -0.0625,-0.29688 -0.0625,-0.98438 v -3.84375 h 1.0625 v 3.45313 q 0,0.8125 0.0625,1.10937 0.0937,0.40625 0.40625,0.65625 0.32812,0.23438 0.8125,0.23438 0.46875,0 0.875,-0.23438 0.42187,-0.25 0.59375,-0.67187 0.1875,-0.42188 0.1875,-1.21875 v -3.32813 h 1.04687 v 6.21875 z m 2.17383,-1.85937 1.03125,-0.15625 q 0.0937,0.625 0.48437,0.95312 0.40625,0.32813 1.14063,0.32813 0.71875,0 1.0625,-0.28125 0.35937,-0.29688 0.35937,-0.70313 0,-0.35937 -0.3125,-0.5625 -0.21875,-0.14062 -1.07812,-0.35937 -1.15625,-0.29688 -1.60938,-0.5 -0.4375,-0.21875 -0.67187,-0.59375 -0.23438,-0.375 -0.23438,-0.84375 0,-0.40625 0.1875,-0.76563 0.1875,-0.35937 0.51563,-0.59375 0.25,-0.17187 0.67187,-0.29687 0.42188,-0.125 0.92188,-0.125 0.71875,0 1.26562,0.21875 0.5625,0.20312 0.82813,0.5625 0.26562,0.35937 0.35937,0.95312 l -1.03125,0.14063 q -0.0625,-0.46875 -0.40625,-0.73438 -0.32812,-0.28125 -0.95312,-0.28125 -0.71875,0 -1.03125,0.25 -0.3125,0.23438 -0.3125,0.5625 0,0.20313 0.125,0.35938 0.14062,0.17187 0.40625,0.28125 0.15625,0.0625 0.9375,0.26562 1.125,0.3125 1.5625,0.5 0.4375,0.1875 0.6875,0.54688 0.25,0.35937 0.25,0.90625 0,0.53125 -0.3125,1 -0.29688,0.45312 -0.875,0.71875 -0.57813,0.25 -1.3125,0.25 -1.21875,0 -1.85938,-0.5 -0.625,-0.51563 -0.79687,-1.5 z m 10.67187,-0.14063 1.09375,0.125 q -0.25,0.95313 -0.95312,1.48438 -0.70313,0.53125 -1.78125,0.53125 -1.35938,0 -2.17188,-0.84375 -0.79687,-0.84375 -0.79687,-2.35938 0,-1.5625 0.8125,-2.42187 0.8125,-0.875 2.09375,-0.875 1.25,0 2.03125,0.84375 0.79687,0.84375 0.79687,2.39062 0,0.0937 0,0.28125 h -4.64062 q 0.0625,1.03125 0.57812,1.57813 0.51563,0.53125 1.29688,0.53125 0.57812,0 0.98437,-0.29688 0.42188,-0.3125 0.65625,-0.96875 z m -3.45312,-1.70312 h 3.46875 q -0.0625,-0.79688 -0.39063,-1.1875 -0.51562,-0.60938 -1.3125,-0.60938 -0.73437,0 -1.23437,0.48438 -0.48438,0.48437 -0.53125,1.3125 z m 5.86133,3.70312 v -6.21875 h 0.95312 v 0.9375 q 0.35938,-0.65625 0.65625,-0.85937 0.3125,-0.21875 0.6875,-0.21875 0.53125,0 1.07813,0.32812 l -0.35938,0.98438 q -0.39062,-0.23438 -0.76562,-0.23438 -0.35938,0 -0.64063,0.21875 -0.26562,0.20313 -0.375,0.57813 -0.1875,0.5625 -0.1875,1.21875 v 3.26562 z"
       fill-rule="nonzero"
       id="path1104" />
    <path
       fill="#efefef"
       d="m 551.50134,144.69833 v 0 c 0,-4.79816 3.88965,-8.68784 8.68781,-8.68784 h 129.8999 c 2.30419,0 4.51397,0.91533 6.14324,2.54462 1.62928,1.62927 2.54462,3.83907 2.54462,6.14322 v 34.7503 c 0,4.79818 -3.88971,8.68786 -8.68786,8.68786 h -129.8999 c -4.79816,0 -8.68781,-3.88968 -8.68781,-8.68786 z"
       fill-rule="evenodd"
       id="path1106" />
    <path
       stroke="#000000"
       stroke-width="1"
       stroke-linejoin="round"
       stroke-linecap="butt"
       d="m 551.50134,144.69833 v 0 c 0,-4.79816 3.88965,-8.68784 8.68781,-8.68784 h 129.8999 c 2.30419,0 4.51397,0.91533 6.14324,2.54462 1.62928,1.62927 2.54462,3.83907 2.54462,6.14322 v 34.7503 c 0,4.79818 -3.88971,8.68786 -8.68786,8.68786 h -129.8999 c -4.79816,0 -8.68781,-3.88968 -8.68781,-8.68786 z"
       fill-rule="evenodd"
       id="path1108" />
    <path
       fill="#000000"
       d="m 585.7192,159.59349 v -8.59375 h 1.15625 l 4.51562,6.75 v -6.75 h 1.09375 v 8.59375 h -1.17187 l -4.51563,-6.75 v 6.75 z m 8.72852,0 v -8.59375 h 5.79687 v 1.01562 h -4.65625 v 2.65625 h 4.03125 v 1.01563 h -4.03125 v 3.90625 z m 9.45507,0 v -7.57813 h -2.82812 v -1.01562 h 6.8125 v 1.01562 h -2.84375 v 7.57813 z m 3.26563,-1.85938 1.03125,-0.15625 q 0.0937,0.625 0.48437,0.95313 0.40625,0.32812 1.14063,0.32812 0.71875,0 1.0625,-0.28125 0.35937,-0.29687 0.35937,-0.70312 0,-0.35938 -0.3125,-0.5625 -0.21875,-0.14063 -1.07812,-0.35938 -1.15625,-0.29687 -1.60938,-0.5 -0.4375,-0.21875 -0.67187,-0.59375 -0.23438,-0.375 -0.23438,-0.84375 0,-0.40625 0.1875,-0.76562 0.1875,-0.35938 0.51563,-0.59375 0.25,-0.17188 0.67187,-0.29688 0.42188,-0.125 0.92188,-0.125 0.71875,0 1.26562,0.21875 0.5625,0.20313 0.82813,0.5625 0.26562,0.35938 0.35937,0.95313 l -1.03125,0.14062 q -0.0625,-0.46875 -0.40625,-0.73437 -0.32812,-0.28125 -0.95312,-0.28125 -0.71875,0 -1.03125,0.25 -0.3125,0.23437 -0.3125,0.5625 0,0.20312 0.125,0.35937 0.14062,0.17188 0.40625,0.28125 0.15625,0.0625 0.9375,0.26563 1.125,0.3125 1.5625,0.5 0.4375,0.1875 0.6875,0.54687 0.25,0.35938 0.25,0.90625 0,0.53125 -0.3125,1 -0.29688,0.45313 -0.875,0.71875 -0.57813,0.25 -1.3125,0.25 -1.21875,0 -1.85938,-0.5 -0.625,-0.51562 -0.79687,-1.5 z m 9.91211,1.85938 v -8.59375 h 6.20312 v 1.01562 h -5.0625 v 2.625 h 4.75 v 1.01563 h -4.75 v 2.92187 h 5.26563 v 1.01563 z m 7.98828,0 v -8.59375 h 3.8125 q 1.15625,0 1.75,0.23437 0.59375,0.23438 0.95312,0.82813 0.35938,0.57812 0.35938,1.28125 0,0.92187 -0.59375,1.54687 -0.59375,0.625 -1.82813,0.79688 0.45313,0.21875 0.6875,0.42187 0.5,0.45313 0.9375,1.14063 l 1.5,2.34375 h -1.4375 l -1.125,-1.78125 q -0.5,-0.78125 -0.82812,-1.1875 -0.3125,-0.40625 -0.57813,-0.5625 -0.25,-0.17188 -0.51562,-0.25 -0.1875,-0.0312 -0.625,-0.0312 h -1.32813 v 3.8125 z m 1.14062,-4.79688 h 2.45313 q 0.76562,0 1.20312,-0.15625 0.45313,-0.17187 0.67188,-0.51562 0.23437,-0.35938 0.23437,-0.78125 0,-0.60938 -0.45312,-1 -0.4375,-0.39063 -1.39063,-0.39063 h -2.71875 z m 13.6504,1.78125 1.125,0.29688 q -0.35938,1.39062 -1.28125,2.125 -0.92188,0.73437 -2.26563,0.73437 -1.39062,0 -2.26562,-0.5625 -0.875,-0.5625 -1.32813,-1.625 -0.45312,-1.07812 -0.45312,-2.3125 0,-1.34375 0.51562,-2.34375 0.51563,-1 1.45313,-1.51562 0.95312,-0.51563 2.09375,-0.51563 1.28125,0 2.15625,0.65625 0.89062,0.65625 1.23437,1.84375 l -1.125,0.26563 q -0.29687,-0.9375 -0.875,-1.35938 -0.5625,-0.4375 -1.42187,-0.4375 -0.98438,0 -1.65625,0.48438 -0.65625,0.46875 -0.9375,1.26562 -0.26563,0.79688 -0.26563,1.65625 0,1.09375 0.3125,1.90625 0.32813,0.8125 1,1.21875 0.67188,0.40625 1.46875,0.40625 0.95313,0 1.60938,-0.54687 0.67187,-0.54688 0.90625,-1.64063 z m 1.97851,0.4375 v -1.0625 h 3.25 v 1.0625 z m 4.18359,-4.89062 v -1.01563 h 5.5625 v 0.82813 q -0.8125,0.875 -1.625,2.32812 -0.79687,1.4375 -1.23437,2.96875 -0.32813,1.07813 -0.40625,2.35938 h -1.09375 q 0.0156,-1.01563 0.39062,-2.45313 0.39063,-1.4375 1.09375,-2.76562 0.71875,-1.32813 1.53125,-2.25 z m 12.15821,6.45312 v 1.01563 h -5.6875 q 0,-0.375 0.125,-0.73438 0.21875,-0.57812 0.6875,-1.14062 0.48437,-0.5625 1.39062,-1.29688 1.40625,-1.15625 1.89063,-1.82812 0.5,-0.67188 0.5,-1.26563 0,-0.625 -0.45313,-1.04687 -0.45312,-0.4375 -1.17187,-0.4375 -0.76563,0 -1.21875,0.45312 -0.45313,0.45313 -0.46875,1.26563 l -1.07813,-0.10938 q 0.10938,-1.21875 0.82813,-1.84375 0.73437,-0.64062 1.96875,-0.64062 1.23437,0 1.95312,0.6875 0.71875,0.6875 0.71875,1.70312 0,0.51563 -0.21875,1.01563 -0.20312,0.48437 -0.70312,1.04687 -0.48438,0.54688 -1.60938,1.5 -0.95312,0.79688 -1.23437,1.09375 -0.26563,0.28125 -0.4375,0.5625 z m 5.0957,1.01563 h -1.04687 v -6.71875 q -0.39063,0.35937 -1.01563,0.73437 -0.60937,0.35938 -1.09375,0.53125 v -1.01562 q 0.875,-0.42188 1.53125,-1 0.67188,-0.59375 0.95313,-1.15625 h 0.67187 z"
       fill-rule="nonzero"
       id="path1110" />
    <path
       fill="#000000"
       d="m 577.9887,173.59349 v -0.92188 q -0.73438,1.0625 -1.98438,1.0625 -0.54687,0 -1.03125,-0.20312 -0.46875,-0.21875 -0.70312,-0.53125 -0.23438,-0.32813 -0.32813,-0.79688 -0.0625,-0.29687 -0.0625,-0.98437 v -3.84375 h 1.0625 v 3.45312 q 0,0.8125 0.0625,1.10938 0.0937,0.40625 0.40625,0.65625 0.32813,0.23437 0.8125,0.23437 0.46875,0 0.875,-0.23437 0.42188,-0.25 0.59375,-0.67188 0.1875,-0.42187 0.1875,-1.21875 v -3.32812 h 1.04688 v 6.21875 z m 2.5957,0 v -6.21875 h 0.9375 v 0.875 q 0.6875,-1.01563 1.98438,-1.01563 0.5625,0 1.03125,0.20313 0.48437,0.20312 0.71875,0.53125 0.23437,0.32812 0.32812,0.76562 0.0469,0.29688 0.0469,1.03125 v 3.82813 h -1.04688 v -3.78125 q 0,-0.65625 -0.125,-0.96875 -0.125,-0.3125 -0.4375,-0.5 -0.3125,-0.20313 -0.73437,-0.20313 -0.67188,0 -1.17188,0.4375 -0.48437,0.42188 -0.48437,1.60938 v 3.40625 z m 6.67383,-7.375 v -1.21875 h 1.0625 v 1.21875 z m 0,7.375 v -6.21875 h 1.0625 v 6.21875 z m 2.63477,0 v -8.59375 h 1.0625 v 8.59375 z m 2.69726,-7.375 v -1.21875 h 1.0625 v 1.21875 z m 0,7.375 v -6.21875 h 1.0625 v 6.21875 z m 2.66602,0 v -6.21875 h 0.9375 v 0.875 q 0.29687,-0.46875 0.78125,-0.73438 0.48437,-0.28125 1.10937,-0.28125 0.6875,0 1.125,0.28125 0.45313,0.28125 0.625,0.79688 0.75,-1.07813 1.92188,-1.07813 0.9375,0 1.42187,0.51563 0.5,0.5 0.5,1.57812 v 4.26563 h -1.04687 v -3.92188 q 0,-0.625 -0.10938,-0.90625 -0.0937,-0.28125 -0.35937,-0.45312 -0.26563,-0.17188 -0.64063,-0.17188 -0.65625,0 -1.09375,0.4375 -0.42187,0.4375 -0.42187,1.40625 v 3.60938 h -1.0625 v -4.04688 q 0,-0.70312 -0.26563,-1.04687 -0.25,-0.35938 -0.82812,-0.35938 -0.45313,0 -0.82813,0.23438 -0.375,0.23437 -0.54687,0.6875 -0.17188,0.45312 -0.17188,1.29687 v 3.23438 z m 9.99609,-7.375 v -1.21875 h 1.0625 v 1.21875 z m 0,7.375 v -6.21875 h 1.0625 v 6.21875 z m 4.96289,-0.9375 0.15625,0.92187 q -0.45312,0.0937 -0.79687,0.0937 -0.57813,0 -0.89063,-0.17187 -0.3125,-0.1875 -0.45312,-0.48438 -0.125,-0.29687 -0.125,-1.25 v -3.57812 h -0.76563 v -0.8125 h 0.76563 v -1.54688 l 1.04687,-0.625 v 2.17188 h 1.0625 v 0.8125 h -1.0625 v 3.64062 q 0,0.45313 0.0469,0.57813 0.0625,0.125 0.1875,0.20312 0.125,0.0781 0.35937,0.0781 0.1875,0 0.46875,-0.0312 z m 5.28711,-1.0625 1.09375,0.125 q -0.25,0.95312 -0.95312,1.48437 -0.70313,0.53125 -1.78125,0.53125 -1.35938,0 -2.17188,-0.84375 -0.79687,-0.84375 -0.79687,-2.35937 0,-1.5625 0.8125,-2.42188 0.8125,-0.875 2.09375,-0.875 1.25,0 2.03125,0.84375 0.79687,0.84375 0.79687,2.39063 0,0.0937 0,0.28125 h -4.64062 q 0.0625,1.03125 0.57812,1.57812 0.51563,0.53125 1.29688,0.53125 0.57812,0 0.98437,-0.29687 0.42188,-0.3125 0.65625,-0.96875 z m -3.45312,-1.70313 h 3.46875 q -0.0625,-0.79687 -0.39063,-1.1875 -0.51562,-0.60937 -1.3125,-0.60937 -0.73437,0 -1.23437,0.48437 -0.48438,0.48438 -0.53125,1.3125 z m 9.9082,3.70313 v -0.78125 q -0.59375,0.92187 -1.73438,0.92187 -0.75,0 -1.375,-0.40625 -0.625,-0.42187 -0.96875,-1.15625 -0.34375,-0.73437 -0.34375,-1.6875 0,-0.92187 0.3125,-1.6875 0.3125,-0.76562 0.9375,-1.15625 0.625,-0.40625 1.39063,-0.40625 0.5625,0 1,0.23438 0.4375,0.23437 0.71875,0.60937 v -3.07812 h 1.04687 v 8.59375 z m -3.32813,-3.10938 q 0,1.20313 0.5,1.79688 0.5,0.57812 1.1875,0.57812 0.6875,0 1.17188,-0.5625 0.48437,-0.5625 0.48437,-1.71875 0,-1.28125 -0.5,-1.875 -0.48437,-0.59375 -1.20312,-0.59375 -0.70313,0 -1.17188,0.57813 -0.46875,0.5625 -0.46875,1.79687 z m 13.36719,0.82813 1.03125,0.14062 q -0.17187,1.0625 -0.875,1.67188 -0.70312,0.60937 -1.71875,0.60937 -1.28125,0 -2.0625,-0.82812 -0.76562,-0.84375 -0.76562,-2.40625 0,-1 0.32812,-1.75 0.34375,-0.76563 1.01563,-1.14063 0.6875,-0.375 1.5,-0.375 1,0 1.64062,0.51563 0.65625,0.5 0.84375,1.45312 l -1.03125,0.15625 q -0.14062,-0.625 -0.51562,-0.9375 -0.375,-0.32812 -0.90625,-0.32812 -0.79688,0 -1.29688,0.57812 -0.5,0.5625 -0.5,1.79688 0,1.26562 0.48438,1.82812 0.48437,0.5625 1.25,0.5625 0.625,0 1.03125,-0.375 0.42187,-0.375 0.54687,-1.17187 z m 1.54688,-0.82813 q 0,-1.73437 0.95312,-2.5625 0.79688,-0.6875 1.95313,-0.6875 1.28125,0 2.09375,0.84375 0.82812,0.82813 0.82812,2.3125 0,1.20313 -0.35937,1.89063 -0.35938,0.6875 -1.0625,1.07812 -0.6875,0.375 -1.5,0.375 -1.29688,0 -2.10938,-0.82812 -0.79687,-0.84375 -0.79687,-2.42188 z m 1.07812,0 q 0,1.1875 0.51563,1.78125 0.53125,0.59375 1.3125,0.59375 0.79687,0 1.3125,-0.59375 0.51562,-0.59375 0.51562,-1.8125 0,-1.15625 -0.53125,-1.75 -0.51562,-0.59375 -1.29687,-0.59375 -0.78125,0 -1.3125,0.59375 -0.51563,0.57813 -0.51563,1.78125 z m 5.95508,3.10938 v -8.59375 h 1.0625 v 8.59375 z m 2.66602,0 v -8.59375 h 1.0625 v 8.59375 z m 6.94726,-2 1.09375,0.125 q -0.25,0.95312 -0.95312,1.48437 -0.70313,0.53125 -1.78125,0.53125 -1.35938,0 -2.17188,-0.84375 -0.79687,-0.84375 -0.79687,-2.35937 0,-1.5625 0.8125,-2.42188 0.8125,-0.875 2.09375,-0.875 1.25,0 2.03125,0.84375 0.79687,0.84375 0.79687,2.39063 0,0.0937 0,0.28125 h -4.64062 q 0.0625,1.03125 0.57812,1.57812 0.51563,0.53125 1.29688,0.53125 0.57812,0 0.98437,-0.29687 0.42188,-0.3125 0.65625,-0.96875 z m -3.45312,-1.70313 h 3.46875 q -0.0625,-0.79687 -0.39063,-1.1875 -0.51562,-0.60937 -1.3125,-0.60937 -0.73437,0 -1.23437,0.48437 -0.48438,0.48438 -0.53125,1.3125 z m 9.93945,1.42188 1.03125,0.14062 q -0.17188,1.0625 -0.875,1.67188 -0.70313,0.60937 -1.71875,0.60937 -1.28125,0 -2.0625,-0.82812 -0.76563,-0.84375 -0.76563,-2.40625 0,-1 0.32813,-1.75 0.34375,-0.76563 1.01562,-1.14063 0.6875,-0.375 1.5,-0.375 1,0 1.64063,0.51563 0.65625,0.5 0.84375,1.45312 l -1.03125,0.15625 q -0.14063,-0.625 -0.51563,-0.9375 -0.375,-0.32812 -0.90625,-0.32812 -0.79687,0 -1.29687,0.57812 -0.5,0.5625 -0.5,1.79688 0,1.26562 0.48437,1.82812 0.48438,0.5625 1.25,0.5625 0.625,0 1.03125,-0.375 0.42188,-0.375 0.54688,-1.17187 z m 4.23437,1.34375 0.15625,0.92187 q -0.45312,0.0937 -0.79687,0.0937 -0.57813,0 -0.89063,-0.17187 -0.3125,-0.1875 -0.45312,-0.48438 -0.125,-0.29687 -0.125,-1.25 v -3.57812 h -0.76563 v -0.8125 h 0.76563 v -1.54688 l 1.04687,-0.625 v 2.17188 h 1.0625 v 0.8125 h -1.0625 v 3.64062 q 0,0.45313 0.0469,0.57813 0.0625,0.125 0.1875,0.20312 0.125,0.0781 0.35937,0.0781 0.1875,0 0.46875,-0.0312 z m 1.03711,-6.4375 v -1.21875 h 1.0625 v 1.21875 z m 0,7.375 v -6.21875 h 1.0625 v 6.21875 z m 2.27539,-3.10938 q 0,-1.73437 0.95313,-2.5625 0.79687,-0.6875 1.95312,-0.6875 1.28125,0 2.09375,0.84375 0.82813,0.82813 0.82813,2.3125 0,1.20313 -0.35938,1.89063 -0.35937,0.6875 -1.0625,1.07812 -0.6875,0.375 -1.5,0.375 -1.29687,0 -2.10937,-0.82812 -0.79688,-0.84375 -0.79688,-2.42188 z m 1.07813,0 q 0,1.1875 0.51562,1.78125 0.53125,0.59375 1.3125,0.59375 0.79688,0 1.3125,-0.59375 0.51563,-0.59375 0.51563,-1.8125 0,-1.15625 -0.53125,-1.75 -0.51563,-0.59375 -1.29688,-0.59375 -0.78125,0 -1.3125,0.59375 -0.51562,0.57813 -0.51562,1.78125 z m 5.98633,3.10938 v -6.21875 h 0.9375 v 0.875 q 0.6875,-1.01563 1.98437,-1.01563 0.5625,0 1.03125,0.20313 0.48438,0.20312 0.71875,0.53125 0.23438,0.32812 0.32813,0.76562 0.0469,0.29688 0.0469,1.03125 v 3.82813 h -1.04687 v -3.78125 q 0,-0.65625 -0.125,-0.96875 -0.125,-0.3125 -0.4375,-0.5 -0.3125,-0.20313 -0.73438,-0.20313 -0.67187,0 -1.17187,0.4375 -0.48438,0.42188 -0.48438,1.60938 v 3.40625 z"
       fill-rule="nonzero"
       id="path1112" />
    <path
       fill="#000000"
       fill-opacity="0"
       d="M 432.22308,263.8399 V 188.12335"
       fill-rule="evenodd"
       id="path1114" />
    <path
       stroke="#000000"
       stroke-width="1"
       stroke-linejoin="round"
       stroke-linecap="butt"
       d="M 432.22308,263.8399 V 194.12335"
       fill-rule="evenodd"
       id="path1116" />
    <path
       fill="#000000"
       stroke="#000000"
       stroke-width="1"
       stroke-linecap="butt"
       d="m 433.87482,194.12335 -1.65173,-4.53809 -1.65174,4.53809 z"
       fill-rule="evenodd"
       id="path1118" />
    <path
       fill="#000000"
       fill-opacity="0"
       d="M 235.21523,263.8399 V 188.12335"
       fill-rule="evenodd"
       id="path1120" />
    <path
       stroke="#000000"
       stroke-width="1"
       stroke-linejoin="round"
       stroke-linecap="butt"
       d="M 235.21523,263.8399 V 194.12335"
       fill-rule="evenodd"
       id="path1122" />
    <path
       fill="#000000"
       stroke="#000000"
       stroke-width="1"
       stroke-linecap="butt"
       d="m 236.86696,194.12335 -1.65173,-4.53809 -1.65174,4.53809 z"
       fill-rule="evenodd"
       id="path1124" />
    <path
       fill="#000000"
       fill-opacity="0"
       d="M 308.85303,162.07349 H 358.5853"
       fill-rule="evenodd"
       id="path1126" />
    <path
       stroke="#000000"
       stroke-width="1"
       stroke-linejoin="round"
       stroke-linecap="butt"
       d="M 308.85303,162.07349 H 352.5853"
       fill-rule="evenodd"
       id="path1128" />
    <path
       fill="#000000"
       stroke="#000000"
       stroke-width="1"
       stroke-linecap="butt"
       d="m 352.5853,163.72522 4.53812,-1.65173 -4.53812,-1.65174 z"
       fill-rule="evenodd"
       id="path1130" />
    <path
       fill="#000000"
       fill-opacity="0"
       d="m 505.8609,162.07349 h 45.63776"
       fill-rule="evenodd"
       id="path1132" />
    <path
       stroke="#000000"
       stroke-width="1"
       stroke-linejoin="round"
       stroke-linecap="butt"
       d="m 505.8609,162.07349 h 39.63776"
       fill-rule="evenodd"
       id="path1134" />
    <path
       fill="#000000"
       stroke="#000000"
       stroke-width="1"
       stroke-linecap="butt"
       d="m 545.4987,163.72522 4.53809,-1.65173 -4.53809,-1.65174 z"
       fill-rule="evenodd"
       id="path1136" />
    <path
       fill="#000000"
       fill-opacity="0"
       d="M 432.22308,213.73228 H 539.5932 v 33.92126 H 432.22308 Z"
       fill-rule="evenodd"
       id="path1138" />
    <path
       fill="#000000"
       d="m 442.1137,234.25229 v -8.59375 h 1.71875 l 2.03125,6.07812 q 0.28125,0.85938 0.40625,1.28125 0.14062,-0.46875 0.45312,-1.375 l 2.0625,-5.98437 h 1.53125 v 8.59375 h -1.09375 v -7.1875 l -2.5,7.1875 h -1.03125 l -2.48437,-7.3125 v 7.3125 z m 9.90234,-7.375 v -1.21875 h 1.0625 v 1.21875 z m 0,7.375 v -6.21875 h 1.0625 v 6.21875 z m 2.66602,0 v -6.21875 h 0.9375 v 0.875 q 0.6875,-1.01563 1.98437,-1.01563 0.5625,0 1.03125,0.20313 0.48438,0.20312 0.71875,0.53125 0.23438,0.32812 0.32813,0.76562 0.0469,0.29688 0.0469,1.03125 v 3.82813 h -1.04687 v -3.78125 q 0,-0.65625 -0.125,-0.96875 -0.125,-0.3125 -0.4375,-0.5 -0.3125,-0.20313 -0.73438,-0.20313 -0.67187,0 -1.17187,0.4375 -0.48438,0.42188 -0.48438,1.60938 v 3.40625 z m 8.9707,-0.9375 0.15625,0.92187 q -0.45312,0.0937 -0.79687,0.0937 -0.57813,0 -0.89063,-0.17187 -0.3125,-0.1875 -0.45312,-0.48438 -0.125,-0.29687 -0.125,-1.25 v -3.57812 h -0.76563 v -0.8125 h 0.76563 v -1.54688 l 1.04687,-0.625 v 2.17188 h 1.0625 v 0.8125 h -1.0625 v 3.64062 q 0,0.45313 0.0469,0.57813 0.0625,0.125 0.1875,0.20312 0.125,0.0781 0.35937,0.0781 0.1875,0 0.46875,-0.0312 z"
       fill-rule="nonzero"
       id="path1140" />
    <path
       fill="#000000"
       fill-opacity="0"
       d="m 241.6483,213.73097 h 107.37007 v 33.92127 H 241.6483 Z"
       fill-rule="evenodd"
       id="path1142" />
    <path
       fill="#000000"
       d="m 251.57018,234.25098 v -8.59375 h 2.96875 q 1,0 1.53123,0.125 0.73438,0.17187 1.25,0.60937 0.6875,0.57813 1.01563,1.48438 0.34375,0.89062 0.34375,2.03125 0,0.98437 -0.23438,1.73437 -0.21875,0.75 -0.57812,1.25 -0.35938,0.5 -0.79688,0.78125 -0.42187,0.28125 -1.01562,0.4375 -0.59374,0.14063 -1.37498,0.14063 z m 1.14062,-1.01563 h 1.82813 q 0.85937,0 1.34375,-0.15625 0.48436,-0.15625 0.76561,-0.45312 0.40625,-0.39063 0.625,-1.07813 0.23437,-0.6875 0.23437,-1.65625 0,-1.34375 -0.45312,-2.0625 -0.4375,-0.73437 -1.06248,-0.98437 -0.46875,-0.17188 -1.46875,-0.17188 h -1.8125 z m 11.65038,-0.98437 1.09375,0.125 q -0.25,0.95312 -0.95313,1.48437 -0.70312,0.53125 -1.78125,0.53125 -1.35937,0 -2.17187,-0.84375 -0.79688,-0.84375 -0.79688,-2.35937 0,-1.5625 0.8125,-2.42188 0.8125,-0.875 2.09375,-0.875 1.25,0 2.03125,0.84375 0.79688,0.84375 0.79688,2.39063 0,0.0937 0,0.28125 h -4.64063 q 0.0625,1.03125 0.57813,1.57812 0.51562,0.53125 1.29687,0.53125 0.57813,0 0.98438,-0.29687 0.42187,-0.3125 0.65625,-0.96875 z m -3.45313,-1.70313 h 3.46875 q -0.0625,-0.79687 -0.39062,-1.1875 -0.51563,-0.60937 -1.3125,-0.60937 -0.73438,0 -1.23438,0.48437 -0.48437,0.48438 -0.53125,1.3125 z m 5.87696,6.09375 v -8.60937 h 0.95312 v 0.79687 q 0.34375,-0.46875 0.76563,-0.70312 0.4375,-0.23438 1.04687,-0.23438 0.79688,0 1.40625,0.40625 0.60938,0.40625 0.90625,1.15625 0.3125,0.75 0.3125,1.64063 0,0.95312 -0.34375,1.71875 -0.32812,0.76562 -0.98437,1.17187 -0.65625,0.40625 -1.375,0.40625 -0.53125,0 -0.95313,-0.21875 -0.42187,-0.23437 -0.6875,-0.5625 v 3.03125 z m 0.95312,-5.46875 q 0,1.20313 0.48438,1.78125 0.48437,0.5625 1.17187,0.5625 0.70313,0 1.20313,-0.59375 0.5,-0.59375 0.5,-1.84375 0,-1.1875 -0.48438,-1.76562 -0.48437,-0.59375 -1.17187,-0.59375 -0.67188,0 -1.1875,0.625 -0.51563,0.625 -0.51563,1.82812 z m 5.68946,3.07813 v -8.59375 h 1.0625 v 8.59375 z m 2.30664,-3.10938 q 0,-1.73437 0.95312,-2.5625 0.79688,-0.6875 1.95313,-0.6875 1.28125,0 2.09375,0.84375 0.82812,0.82813 0.82812,2.3125 0,1.20313 -0.35937,1.89063 -0.35938,0.6875 -1.0625,1.07812 -0.6875,0.375 -1.5,0.375 -1.29688,0 -2.10938,-0.82812 -0.79687,-0.84375 -0.79687,-2.42188 z m 1.07812,0 q 0,1.1875 0.51563,1.78125 0.53125,0.59375 1.3125,0.59375 0.79687,0 1.3125,-0.59375 0.51562,-0.59375 0.51562,-1.8125 0,-1.15625 -0.53125,-1.75 -0.51562,-0.59375 -1.29687,-0.59375 -0.78125,0 -1.3125,0.59375 -0.51563,0.57813 -0.51563,1.78125 z m 5.93945,5.5 -0.125,-0.98437 q 0.34375,0.0937 0.60938,0.0937 0.34375,0 0.54687,-0.125 0.21875,-0.10938 0.35938,-0.3125 0.0937,-0.17188 0.32812,-0.79688 0.0156,-0.0781 0.0937,-0.25 l -2.375,-6.23437 h 1.14063 l 1.29687,3.59375 q 0.25,0.6875 0.45313,1.45312 0.1875,-0.73437 0.4375,-1.42187 l 1.32812,-3.625 h 1.04688 l -2.35938,6.32812 q -0.39062,1.01563 -0.59375,1.40625 -0.28125,0.53125 -0.65625,0.76563 -0.35937,0.25 -0.85937,0.25 -0.29688,0 -0.67188,-0.14063 z"
       fill-rule="nonzero"
       id="path1144" />
  </g>
</svg>
